<svg width="16" height="15" viewBox="0 0 16 15" fill="none" xmlns="http://www.w3.org/2000/svg">
<path d="M0.00488281 10.9425C0.00488281 10.8624 0.00488281 10.7923 0.00488281 10.7273C0.00488281 7.78469 0.00488281 4.8471 0.00488281 1.9045C0.00488281 1.2289 0.340179 0.733468 0.9307 0.563318C1.07082 0.523283 1.22596 0.503265 1.37109 0.503265C5.78498 0.498261 10.1989 0.498261 14.6178 0.503265C15.4335 0.503265 15.984 1.04875 15.984 1.86447C15.989 4.83709 15.984 7.80971 15.984 10.7773C15.984 10.8274 15.979 10.8774 15.974 10.9375C10.6593 10.9425 5.34459 10.9425 0.00488281 10.9425ZM8.00194 9.64133C8.26217 9.60129 8.5274 9.57627 8.79264 9.52122C8.99281 9.48118 9.07788 9.36108 9.06287 9.1559C9.04786 8.95572 9.16797 8.85563 9.3181 8.78057C9.47324 8.7055 9.63337 8.66547 9.78851 8.80559C9.95366 8.95072 10.0888 8.95572 10.2589 8.8156C10.6793 8.4753 11.0046 8.06494 11.2398 7.5745C11.3249 7.39434 11.2998 7.25922 11.1397 7.14913C10.9746 7.03403 10.9495 6.88389 10.9896 6.70373C11.0296 6.52358 11.1047 6.37845 11.3199 6.34842C11.505 6.3234 11.6001 6.19328 11.6051 6.00812C11.6101 5.46264 11.485 4.94218 11.2498 4.45175C11.1647 4.27659 11.0296 4.20153 10.8495 4.26158C10.6393 4.33164 10.5142 4.22655 10.3991 4.08643C10.289 3.9463 10.2339 3.80117 10.334 3.62102C10.4341 3.44586 10.4041 3.31074 10.2489 3.19064C9.82355 2.85034 9.34312 2.62013 8.81265 2.49502C8.61247 2.44998 8.48736 2.51004 8.40729 2.7002C8.32722 2.89037 8.17709 2.93541 8.00194 2.93541C7.83179 2.93541 7.68165 2.89037 7.60158 2.71522C7.5015 2.49502 7.38639 2.44498 7.15119 2.50503C6.64574 2.63014 6.19034 2.85034 5.77998 3.17062C5.59982 3.31074 5.56979 3.43585 5.67989 3.64103C5.76997 3.81118 5.70991 3.95631 5.60482 4.09143C5.49973 4.22155 5.37962 4.32664 5.18946 4.27159C4.96426 4.21154 4.84415 4.26658 4.74907 4.47177C4.52387 4.95219 4.40376 5.46264 4.40376 5.99311C4.40376 6.2133 4.48884 6.3184 4.70403 6.35343C4.8992 6.38345 4.96926 6.52358 5.0093 6.68872C5.05434 6.85387 5.04433 7.009 4.8942 7.12911C4.69402 7.28925 4.669 7.39434 4.77909 7.61454C5.0093 8.07494 5.31957 8.47029 5.71492 8.79558C5.9151 8.96072 6.02519 8.96072 6.22537 8.79558C6.3755 8.67047 6.53064 8.7105 6.68077 8.78557C6.8259 8.85563 6.941 8.95572 6.93599 9.14088C6.93099 9.3811 7.01107 9.49119 7.24127 9.53623C7.48649 9.57627 7.74171 9.6063 8.00194 9.64133Z" fill="white"/>
<path d="M4.57404 13.3991C4.48396 13.3991 4.4139 13.3991 4.34884 13.3991C3.36297 13.3991 2.3771 13.4041 1.39123 13.3991C0.690612 13.3941 0.165148 13.0038 0.0400378 12.3682C-0.00500197 12.128 0.0100088 11.8728 0 11.6125C5.33971 11.6125 10.6494 11.6125 15.9591 11.6125C16.1643 12.6385 15.5787 13.3991 14.6279 13.3991C13.7021 13.3991 12.7813 13.3991 11.8555 13.3991C11.7203 13.3991 11.5852 13.3991 11.4251 13.3991C11.4951 13.6994 11.6403 13.9346 11.8104 14.1548C11.8354 14.1848 11.9005 14.1898 11.9455 14.1898C12.0807 14.1948 12.2208 14.1848 12.3559 14.1948C12.5361 14.2048 12.6662 14.3349 12.6662 14.5051C12.6662 14.6753 12.5461 14.8104 12.3659 14.8304C12.3159 14.8354 12.2658 14.8304 12.2158 14.8304C9.4083 14.8304 6.59582 14.8304 3.78834 14.8304C3.72829 14.8304 3.66323 14.8354 3.60318 14.8254C3.43803 14.7954 3.32794 14.6502 3.33795 14.4901C3.34795 14.3249 3.47307 14.2048 3.64822 14.1948C3.78334 14.1898 3.92346 14.1948 4.05858 14.1898C4.10362 14.1898 4.16868 14.1848 4.1937 14.1548C4.35885 13.9396 4.49897 13.6994 4.57404 13.3991Z" fill="white"/>
<path d="M8.00266 4.18117C9.00354 4.18618 9.82427 5.0069 9.82427 6.01279C9.82927 7.01868 8.98853 7.85442 7.98764 7.84941C6.98676 7.84441 6.16604 7.01868 6.16604 6.01779C6.16103 5.0069 6.99177 4.17617 8.00266 4.18117Z" fill="white"/>
</svg>
