<svg width="29" height="20" viewBox="0 0 29 20" fill="none" xmlns="http://www.w3.org/2000/svg">
<path d="M4.75653 16.3106C3.25413 15.8432 2.17741 14.9334 1.45125 13.6063C0.00728244 10.9437 0.858644 7.49657 3.40438 5.93575C3.97195 5.58519 4.35589 5.16785 4.72315 4.62532C6.17547 2.43015 8.29552 1.50367 10.8913 1.60383C11.317 1.62052 11.7343 1.73738 12.1517 1.78745C12.2852 1.80415 12.4688 1.77076 12.569 1.68729C13.9879 0.535455 15.6072 -0.0321172 17.4435 0.0012694C20.4483 0.0513494 23.1192 2.03785 24.0624 4.93415C24.1124 5.09273 24.1542 5.20124 24.3545 5.24297C26.6498 5.76047 28.027 7.22948 28.5946 9.46638C29.2122 11.8786 28.1689 14.4493 26.0906 15.7347C25.69 15.9851 25.2392 16.1437 24.7635 16.3774C24.7635 15.5511 24.7635 14.8082 24.7635 14.0737C24.7551 11.6115 23.1108 9.59993 20.6987 9.12417C20.3982 9.06574 20.081 9.03236 19.7722 9.03236C16.4419 9.02401 13.1032 9.01566 9.77288 9.03236C7.33565 9.0407 5.32411 10.7017 4.87339 13.0805C4.73984 13.7816 4.78992 14.5078 4.77322 15.2256C4.74818 15.5594 4.75653 15.91 4.75653 16.3106Z" fill="white"/>
<path d="M14.7475 19.9999C13.1199 19.9999 11.5006 19.9999 9.87304 19.9999C8.03677 19.9999 6.75973 18.7061 6.75973 16.8699C6.75973 15.9434 6.75973 15.0169 6.75973 14.0904C6.76807 12.3376 8.05346 11.0105 9.80626 11.0022C13.1032 10.9855 16.4085 10.9855 19.7054 11.0022C21.4665 11.0105 22.7519 12.3209 22.7603 14.0737C22.7686 15.0336 22.7686 15.9851 22.7603 16.945C22.7519 18.6811 21.4499 19.9832 19.7137 19.9915C18.0611 19.9999 16.4001 19.9999 14.7475 19.9999ZM16.759 16.5026C17.4017 16.5026 18.0528 16.5026 18.6955 16.5026C19.3048 16.5026 19.7555 16.0853 19.7555 15.5177C19.7638 14.9501 19.3131 14.5078 18.7121 14.5078C17.4101 14.4994 16.108 14.4994 14.8059 14.5078C14.1966 14.5078 13.7542 14.9501 13.7542 15.5177C13.7542 16.0853 14.205 16.5026 14.8143 16.5026C15.4653 16.5026 16.108 16.5026 16.759 16.5026ZM12.2685 15.501C12.2685 14.9585 11.8262 14.5078 11.2836 14.4994C10.7494 14.4911 10.2904 14.9501 10.2737 15.4843C10.2653 16.0352 10.7244 16.4943 11.2836 16.4943C11.8345 16.4943 12.2685 16.0519 12.2685 15.501Z" fill="white"/>
<path d="M14.7475 19.9999C13.1199 19.9999 11.5006 19.9999 9.87304 19.9999C8.03677 19.9999 6.75973 18.7061 6.75973 16.8699C6.75973 15.9434 6.75973 15.0169 6.75973 14.0904C6.76807 12.3376 8.05346 11.0105 9.80626 11.0022C13.1032 10.9855 16.4085 10.9855 19.7054 11.0022C21.4665 11.0105 22.7519 12.3209 22.7603 14.0737C22.7686 15.0336 22.7686 15.9851 22.7603 16.945C22.7519 18.6811 21.4499 19.9832 19.7137 19.9915C18.0611 19.9999 16.4001 19.9999 14.7475 19.9999ZM16.759 16.5026C17.4017 16.5026 18.0528 16.5026 18.6955 16.5026C19.3048 16.5026 19.7555 16.0853 19.7555 15.5177C19.7638 14.9501 19.3131 14.5078 18.7121 14.5078C17.4101 14.4994 16.108 14.4994 14.8059 14.5078C14.1966 14.5078 13.7542 14.9501 13.7542 15.5177C13.7542 16.0853 14.205 16.5026 14.8143 16.5026C15.4653 16.5026 16.108 16.5026 16.759 16.5026ZM12.2685 15.501C12.2685 14.9585 11.8262 14.5078 11.2836 14.4994C10.7494 14.4911 10.2904 14.9501 10.2737 15.4843C10.2653 16.0352 10.7244 16.4943 11.2836 16.4943C11.8345 16.4943 12.2685 16.0519 12.2685 15.501Z" fill="white"/>
</svg>
