<svg width="17" height="16" viewBox="0 0 17 16" fill="none" xmlns="http://www.w3.org/2000/svg">
<path d="M-0.000976562 1.18647C0.0675366 0.853696 0.199669 0.555174 0.463934 0.33006C0.723305 0.104945 1.03161 0.00217502 1.36929 0.00217502C4.90261 0.00217502 8.43103 -0.00271878 11.9644 0.00217502C12.7474 0.00217502 13.2955 0.540493 13.3395 1.34308C13.3591 1.75905 13.3444 2.17502 13.3444 2.59099C13.3444 2.61057 13.3346 2.63014 13.3297 2.6644C13.2661 2.6644 13.2074 2.6644 13.1438 2.6644C11.4652 2.6644 9.78662 2.6644 8.11294 2.6644C7.511 2.6644 6.958 2.80632 6.46862 3.16357C5.71008 3.72146 5.34305 4.4751 5.34305 5.41471C5.34305 7.53862 5.34305 9.66253 5.34305 11.7913C5.34305 11.8598 5.34305 11.9235 5.34305 12.0018C5.26475 12.0018 5.20113 12.0018 5.1424 12.0018C3.92385 12.0018 2.70529 11.9871 1.48674 12.0067C0.703731 12.0213 0.121368 11.5271 0.0234924 10.8566C0.0234924 10.8419 0.0137036 10.8273 0.00391604 10.8126C-0.000977757 7.60224 -0.000976562 4.39191 -0.000976562 1.18647Z" fill="white"/>
<path d="M11.8518 16C11.5141 15.9217 11.2156 15.7896 10.9856 15.5155C10.7605 15.2463 10.6724 14.9331 10.6724 14.5906C10.6724 12.8631 10.6675 11.1307 10.6724 9.40316C10.6773 8.56143 11.2499 7.99864 12.0965 7.99864C12.9284 7.99864 13.7653 7.99864 14.5972 7.99864C15.439 7.99864 16.0115 8.57121 16.0115 9.41294C16.0115 11.1209 16.0017 12.8288 16.0164 14.5367C16.0213 15.3051 15.5417 15.8874 14.8517 15.9853C14.8419 15.9853 14.8321 15.9951 14.8223 16C13.8289 16 12.8403 16 11.8518 16Z" fill="white"/>
<path d="M9.34128 14.6444C8.80296 14.6444 8.28422 14.6885 7.77527 14.6346C7.1146 14.5661 6.66927 13.9642 6.66927 13.2399C6.66927 11.7179 6.66927 10.196 6.66927 8.67398C6.66927 7.59245 6.66927 6.50603 6.66927 5.4245C6.66927 4.9547 6.82587 4.5583 7.20759 4.26957C7.45228 4.0836 7.73612 4.00041 8.03953 3.99551C9.79641 3.99551 11.5533 3.99062 13.3053 3.99551C14.0785 4.00041 14.6413 4.54362 14.6657 5.31194C14.6804 5.75239 14.6706 6.19772 14.6706 6.65774C14.5972 6.65774 14.5385 6.65774 14.4798 6.65774C13.6772 6.65774 12.8746 6.65284 12.072 6.65774C10.8632 6.66263 9.86981 7.34776 9.49299 8.46844C9.39022 8.77186 9.35107 9.10953 9.35107 9.43252C9.33639 11.1062 9.34617 12.775 9.34617 14.4487C9.34128 14.5172 9.34128 14.5759 9.34128 14.6444Z" fill="white"/>
</svg>
