<svg width="15" height="16" viewBox="0 0 15 16" fill="none" xmlns="http://www.w3.org/2000/svg">
<g id="Frame 8">
<g id="Vector">
<path d="M14.121 8.56584C14.121 8.7123 14.121 8.85876 14.121 9.00879C14.1067 9.06952 14.0889 9.13025 14.0746 9.19454C13.7674 10.8877 13.4423 12.5774 13.1601 14.2742C12.9744 15.3958 12.0956 16.0138 11.1276 15.9995C9.34505 15.9745 7.56255 15.9959 5.78004 15.9888C5.57285 15.9888 5.35495 15.9674 5.15491 15.9102C4.33331 15.6744 3.80106 14.9457 3.80106 14.0634C3.79749 12.0773 3.80106 10.0947 3.80106 8.10861C3.80106 8.08717 3.80106 8.06217 3.80106 8.04074C3.80821 7.84427 3.90108 7.72281 4.08326 7.66209C4.16899 7.63351 4.2583 7.60851 4.3476 7.57993C5.06561 7.34417 5.71574 6.9941 6.22299 6.41898C6.76238 5.80814 7.00529 5.07942 7.06602 4.27925C7.09459 3.89346 7.09102 3.50767 7.12674 3.12545C7.16961 2.66821 7.40537 2.40744 7.79831 2.35029C7.92333 2.33243 8.0555 2.336 8.1841 2.35029C8.85924 2.43959 9.33791 2.8111 9.67012 3.39336C10.1381 4.21853 10.2274 5.11157 10.1416 6.03319C10.1166 6.31539 10.0595 6.59401 10.0166 6.88693C10.0666 6.88693 10.1166 6.88693 10.1666 6.88693C10.8668 6.88693 11.5634 6.88336 12.2635 6.8905C13.0672 6.89765 13.771 7.41204 14.0282 8.17291C14.0603 8.29793 14.0853 8.43367 14.121 8.56584Z" fill="white"/>
<path d="M3.03662 11.445C3.03662 12.4559 3.04019 13.4668 3.03662 14.4778C3.03305 15.2279 2.51866 15.8352 1.77922 15.9674C0.889753 16.1317 0.0324352 15.4494 0.00743007 14.5421C-0.00685856 14.092 0.00385797 13.6419 0.00385797 13.1918C0.00385797 11.6022 0.000285808 10.0126 0.00385797 8.42296C0.00743013 7.54778 0.696857 6.86907 1.55775 6.88693C2.35791 6.90122 3.0259 7.5585 3.03662 8.35509C3.04377 9.38744 3.03662 10.4162 3.03662 11.445Z" fill="white"/>
<path d="M5.97294 2.25741C5.92292 2.23241 5.81576 2.20026 5.7336 2.13239C5.58714 2.01093 5.45854 1.86805 5.32637 1.72873C5.15848 1.5537 5.15848 1.29293 5.31923 1.12861C5.48712 0.957146 5.74432 0.950002 5.9265 1.12504C6.07296 1.26078 6.21584 1.40367 6.34801 1.55013C6.46947 1.68587 6.48375 1.84661 6.41231 2.01093C6.34087 2.17168 6.2087 2.2467 5.97294 2.25741Z" fill="white"/>
<path d="M10.1059 2.25741C9.89517 2.25027 9.75942 2.17525 9.68441 2.02165C9.60939 1.86448 9.60939 1.70373 9.72727 1.57156C9.8773 1.4001 10.0381 1.23935 10.2095 1.08932C10.3667 0.950003 10.606 0.971437 10.7596 1.11432C10.9097 1.25364 10.949 1.50369 10.8168 1.66086C10.6596 1.84662 10.481 2.01451 10.2988 2.17883C10.2417 2.22884 10.1488 2.23955 10.1059 2.25741Z" fill="white"/>
<path d="M7.6197 0.703524C7.6197 0.607076 7.61613 0.507055 7.6197 0.410607C7.63042 0.174844 7.80903 -0.000191494 8.04122 -0.000191494C8.27698 -0.00376365 8.4663 0.174843 8.47345 0.414178C8.48059 0.610647 8.47702 0.803544 8.47345 1.00001C8.4663 1.23935 8.27698 1.42153 8.04479 1.42153C7.8126 1.42153 7.62685 1.23578 7.6197 0.996442C7.61613 0.899993 7.6197 0.799973 7.6197 0.703524Z" fill="white"/>
</g>
</g>
</svg>
