<svg width="19" height="17" viewBox="0 0 19 17" fill="none" xmlns="http://www.w3.org/2000/svg">
<path d="M9.23362 12.8794C7.24762 12.8794 5.25645 12.8794 3.27045 12.8794C2.39123 12.8794 1.7344 12.5174 1.36202 11.7158C1.24824 11.4675 1.18101 11.1727 1.18101 10.8934C1.17067 8.09545 1.17067 5.29229 1.17584 2.49431C1.17584 1.38752 2.01885 0.528993 3.12563 0.508305C4.2169 0.49279 5.30817 0.503133 6.39943 0.503133C9.33706 0.503133 12.2695 0.503133 15.2071 0.503133C16.1639 0.503133 16.9035 1.00481 17.1776 1.85817C17.25 2.08056 17.2811 2.32363 17.2811 2.56154C17.2862 5.30781 17.2862 8.05925 17.2862 10.8055C17.2862 12.0261 16.4484 12.8691 15.2175 12.8743C13.7538 12.8794 12.2902 12.8743 10.8214 12.8743C10.2887 12.8794 9.76115 12.8794 9.23362 12.8794ZM7.20625 6.67318C7.20625 7.19037 7.20625 7.70239 7.20625 8.21957C7.20625 8.7109 7.42347 9.07811 7.85273 9.30567C8.282 9.53323 8.71126 9.49703 9.11467 9.22292C9.83873 8.71607 10.5628 8.2144 11.2765 7.69721C12.0057 7.16968 12.0006 6.21289 11.2713 5.69053C10.5628 5.17851 9.8439 4.67684 9.12501 4.17517C8.72161 3.89071 8.28717 3.84934 7.84756 4.08724C7.41829 4.31481 7.20625 4.68718 7.20625 5.17334C7.20625 5.66984 7.20625 6.17151 7.20625 6.67318Z" fill="white"/>
<path d="M9.22328 15.3826C12.0678 15.3826 14.9123 15.3826 17.7569 15.3826C17.8655 15.3826 17.9793 15.3878 18.0827 15.4188C18.3154 15.4912 18.4603 15.7033 18.4551 15.9515C18.4499 16.1946 18.2999 16.4067 18.062 16.4687C17.9586 16.4946 17.8448 16.4998 17.7362 16.4998C12.0626 16.4998 6.39426 16.4998 0.720712 16.4998C0.612103 16.4998 0.498321 16.4946 0.394884 16.4687C0.131118 16.3963 -0.0240383 16.1584 0.00182106 15.8791C0.0225086 15.6205 0.229384 15.4137 0.493149 15.3878C0.570728 15.3826 0.648306 15.3826 0.725884 15.3826C3.56007 15.3826 6.39426 15.3826 9.22328 15.3826Z" fill="white"/>
</svg>
