<svg id="Capa_1" data-name="Capa 1" xmlns="http://www.w3.org/2000/svg" viewBox="0 0 300 300"><defs><style>.cls-1{fill:#1d1d1b;}</style></defs><path d="M189.86,240.12c28.55-21.44,46.3-48,46.19-83.38a1.77,1.77,0,0,1,1.77-1.77,1.8,1.8,0,0,1,1.67,1.17,94.86,94.86,0,0,1,4,13.92c8.95,30.31-14.95,66.7-49.38,75.19C177.9,248.81,184.3,244.79,189.86,240.12Z"/><path d="M132.4,250.53c6.49-13.22,17.26-20.95,18.63-22.24l.44-.39c7.82-4.8,15.55-9.75,23.51-14.31,4.55-2.61,9.45-4.6,14.15-6.76,6.14-2.8,12.26-5.61,17.32-10.37a1.78,1.78,0,0,1,2.91,1.77c-3.15,12.08-12.83,25.07-22.63,29.4a166.25,166.25,0,0,1-16.07,5.93,188.5,188.5,0,0,0-36.9,16.26A12.33,12.33,0,0,1,132.4,250.53Z"/><path d="M281.73,160.93a3.18,3.18,0,0,0,0-1.62A81.27,81.27,0,0,0,267.58,128c-4.86-6.49-10.31-12.52-15.5-18.75-.78-.94-1.52-1.87-2.28-2.81,0,0,8,3.93,10.53,6.17.74.67-3.58-6.07-4.27-6.79l-.51-.62c-2.87-3.36-6.05-6.42-9.39-9.93l9.55,5.12a32.49,32.49,0,0,0-7.08-7.58,75.82,75.82,0,0,0-8.42-5.3c-2.83-1.63-5.75-3.1-8.63-4.64.1-.21.21-.4.3-.62l2.79.6a13.37,13.37,0,0,0-3.22-1.8c-23-10.86-43.36-25.37-59.83-45C168,31.66,164.54,27,161,22.64a8.35,8.35,0,0,0-2.07-1.77,1.76,1.76,0,0,0-2.44.55l-.09.15a6.4,6.4,0,0,0-.72,2.16c-1,9.45-1.77,18.9-2.58,28.31s-1.77,19.05-2.71,28.59a7.35,7.35,0,0,1-1.52-4c-.25-5.94-.16-11.89-.6-17.81a6.56,6.56,0,0,0-2.52-4.67A57.38,57.38,0,0,1,124.52,33.3,24.9,24.9,0,0,0,122.75,31l-.88.18a30.1,30.1,0,0,0,0,5.2c.65,3.7,1.41,7.41,2.42,11,2.46,9,5.31,17.83,5.1,27.46a1.77,1.77,0,0,0,1.75,1.78,1.71,1.71,0,0,0,1.34-.6c.84-.93,1.65-1.77,2.53-2.65a6,6,0,0,1,5.17-1.63,1.76,1.76,0,0,1,1.64,1.89,1.74,1.74,0,0,1-.75,1.33c-1.17,1-2.22,2-3.31,2.8-12.79,9.57-21.23,21.81-23.91,37.84a55.76,55.76,0,0,1-21.23,35.68c-1.45,1.14-2.91,2.25-4.4,3.33C83.9,157.79,78.33,162,77,163.82c-4.94,7.07,10.61,24.4,27.12,14,.11,0,15.71-9.77,22.27-16.08,2.76-2.66,5.31-4.64,7.08-2.16.76,1,.3,3.36-10.61,12.22h-.13c-9.3,6.55-12,9-21,12.92C99,186,100,189,101.75,189a32.91,32.91,0,0,0,9.93-1.11c6.77-1.5,12.81-5.47,19-8.51,7.08-3.54,14.28-6.79,22.54-5.84.25,0,2,0,1.17-.6-7.31-4.21-14.29-1.52-21.23-.23a17.85,17.85,0,0,1,16.7-4.37,14.14,14.14,0,0,1,9.73,6.69,1.77,1.77,0,0,0,2.36.83,1.73,1.73,0,0,0,1-1.47,21.43,21.43,0,0,0-2.72-11.3c-.39-.78-.76-1.58-1.12-2.41a1.76,1.76,0,0,1,.91-2.33,1.82,1.82,0,0,1,.86-.15,6.77,6.77,0,0,1,6.35,5.79c1.3,5.48,1.95,11-.56,16.42-1.77,4-3.54,8.22-5.54,12.15-5.43,10.31-11.07,20.5-16.59,30.78-1,1.93-1.91,4-2.87,5.95,14-20.68,33.74-34.61,54.24-47.66-3.29,3.53-6.79,6.77-10.33,10s-7.23,6.44-10.84,9.66c6.44-2.16,31.06-19.62,35.56-24.63,9-10,10.35-21.23,5.39-33.49-3.84-9.41-10.61-16.36-18.93-22.08-1.09-.76-2.17-1.53-3.25-2.31a2,2,0,0,0-.37-.22c-12.9-5.2-20.44-7.55,2.68-6,29.34,1.49,48.68,21.23,53.08,28.55.24.41.46.82.66,1.24,3.92,8.39,26.16,52.57,11.11,85.42,12.63-26.36,17.77-56.42,7.15-84.07C267.5,142.77,279.06,155.82,281.73,160.93ZM127.14,129.5c-2.85,0-4.6-1.6-4.62-2.85,0-2.5,1.77-3.54,4.44-5.88a52.67,52.67,0,0,1,7.28-5c4.1-2.37,7.57-.79,4.72,4.73C136.87,124.56,131.76,129.5,127.14,129.5Zm36.5-76.43a24.15,24.15,0,0,0,2,2.07,11.63,11.63,0,0,0,3.47,2.47h0a.55.55,0,0,0,.76-.65l-1.12-3.77A1.71,1.71,0,0,1,170.23,51a1.32,1.32,0,0,1,.28,0,1.78,1.78,0,0,1,1.22.73c7.48,10.62,6.72,26.91-3,33,3.15-5.79,5.91-11,4.78-17.32l-1.25,2.51a2.27,2.27,0,0,1-2.3,1.24h0a4.58,4.58,0,0,1-3.9-3.53c-1.09-4.81-3.06-13.54-3.27-14.24C162.46,52.42,163.46,52.71,163.64,53.07Zm5.91,33.4c8.46-6.26,11.61-14.93,12.21-24.91a17.53,17.53,0,0,1,.21-2.39c0-.18.23-.34.35-.5,8.48,8.48,6.09,23.75-5.07,28.31l3.27-5.15-.25-.28-19.66,15h0c-1,.61-.44-1.44.09-2C163.51,91.71,166.47,89,169.55,86.47ZM178,178.64c.33-5.3.67-10.75,1-15.92C181.76,165.94,181.3,174.52,178,178.64Zm13.44-42.9c6.42,2.39,11.61,6.64,13.34,14.15,1.54,8.07-18.29,29.16-18.89,25.73-1-4,.56-7.45,1.77-10.62a15.38,15.38,0,0,0-4.06-16.11c-5.18-4.75-11.9-8.12-19.24-11.8a23.62,23.62,0,0,0-2.85-1.61c-1.56-.8-4.85-2.68-2.06-4.59,1.77-1,9.06-.47,13.49.3A108,108,0,0,1,191.45,135.74Zm33.92-29c-6.53-2.39-13-4.94-19.61-7.08-12.88-4.28-25.67-2.78-38.35,1.05-2.46.74-5,1.39-8.16,2.3a49.54,49.54,0,0,1,70.47,5.18h0C227.76,107.56,226.54,107.13,225.37,106.71Z"/><path class="cls-1" d="M273.14,167.53a112.07,112.07,0,0,1,.21,13.72A115,115,0,0,1,271.82,195a121.1,121.1,0,0,1-8,26.56,119.08,119.08,0,0,1-14.31,24,114.83,114.83,0,0,1-19.75,20,126.54,126.54,0,0,1-11.53,8.2,121.72,121.72,0,0,1-12.49,6.7,116.39,116.39,0,0,1-27,8.82,120,120,0,0,1-28.38,2.19,124,124,0,0,1-28.11-4.64,119.36,119.36,0,0,1-49.15-28.09A123.62,123.62,0,0,1,55,236.87a120.68,120.68,0,0,1-12.41-25.52,116.92,116.92,0,0,1-5.28-55.72l.55-3.46.72-3.44c.43-2.29,1-4.55,1.65-6.8a100.3,100.3,0,0,1,4.48-13.22,116.29,116.29,0,0,1,6.06-12.51,112.79,112.79,0,0,1,7.54-11.59,1.58,1.58,0,0,1,2.63,1.73h0a123.72,123.72,0,0,0-6.1,11.91A110.49,110.49,0,0,0,50,130.67a117.94,117.94,0,0,0-5.16,25.87,109.76,109.76,0,0,0,.71,26.13,114.34,114.34,0,0,0,6.56,25.16,120.76,120.76,0,0,0,12.06,22.92,118.19,118.19,0,0,0,16.86,19.54,112.07,112.07,0,0,0,20.82,15.15c1.84,1.12,3.8,2,5.69,3s3.91,1.8,5.86,2.69,4,1.63,6,2.32,4.06,1.44,6.14,2A114.53,114.53,0,0,0,151,279.89a112.81,112.81,0,0,0,25.75-1.51A111.2,111.2,0,0,0,201.52,271a115.26,115.26,0,0,0,56.74-52.19,119.38,119.38,0,0,0,5.5-12.07l1.19-3.11c.38-1,.7-2.11,1.05-3.17.7-2.11,1.38-4.23,1.95-6.39a123.64,123.64,0,0,0,4-26.56.58.58,0,0,1,.61-.55A.57.57,0,0,1,273.14,167.53Z"/></svg>