<svg id="Capa_1" data-name="Capa 1" xmlns="http://www.w3.org/2000/svg" viewBox="0 0 477.72 129.92"><defs><style>.cls-1{font-size:60.28px;font-family:MagmawaveCaps-Bold, Magmawave Caps;font-weight:700;}.cls-2{letter-spacing:-0.09em;}.cls-3{letter-spacing:-0.04em;}.cls-4{letter-spacing:-0.08em;}.cls-5{letter-spacing:0em;}.cls-6{fill:#1d1d1b;}</style></defs><text class="cls-1" transform="translate(125 102.74)"><tspan class="cls-2">D</tspan><tspan class="cls-3" x="34.9" y="0">a</tspan><tspan x="77.59" y="0">rk </tspan><tspan class="cls-4" x="181.4" y="0">W</tspan><tspan class="cls-5" x="232.76" y="0">olf</tspan></text><path class="cls-6" d="M75.58,133.93c16.14-12.12,26.17-27.11,26.11-47.13a1,1,0,0,1,1.94-.34,53.14,53.14,0,0,1,2.25,7.87c5.06,17.13-8.45,37.7-27.91,42.5C68.82,138.84,72.44,136.57,75.58,133.93Z" transform="translate(-11.26 -9.88)"/><path class="cls-6" d="M43.1,139.81c3.67-7.47,9.76-11.84,10.53-12.57l.25-.22c4.42-2.71,8.79-5.51,13.29-8.09,2.57-1.47,5.34-2.6,8-3.82,3.47-1.58,6.93-3.17,9.79-5.86a1,1,0,0,1,1.64,1c-1.78,6.83-7.25,14.17-12.79,16.62a94,94,0,0,1-9.08,3.35,106.59,106.59,0,0,0-20.86,9.19C43.65,139.56,43.37,139.68,43.1,139.81Z" transform="translate(-11.26 -9.88)"/><path class="cls-6" d="M95.44,84.93a1,1,0,0,1,2,.35A22.63,22.63,0,0,1,86.07,101.6a36.38,36.38,0,0,0,8-12.25A35.07,35.07,0,0,0,95.44,84.93Z" transform="translate(-11.26 -9.88)"/><path class="cls-6" d="M127.51,89.17a1.91,1.91,0,0,0,0-.92,46,46,0,0,0-8-17.71c-2.75-3.67-5.83-7.08-8.76-10.6-.44-.53-.86-1.06-1.29-1.59l.39-.33,1.67,1.39A1,1,0,0,0,113,58l-.29-.35c-1.62-1.9-3.42-3.63-5.31-5.61l5.4,2.89a18.28,18.28,0,0,0-4-4.28,43,43,0,0,0-4.76-3c-1.6-.92-3.25-1.75-4.88-2.62.06-.12.12-.23.17-.35l1.58.34A7.53,7.53,0,0,0,99.09,44c-13-6.14-24.51-14.34-33.82-25.42-2.07-2.48-4-5.1-6-7.58A4.85,4.85,0,0,0,58.1,10a1,1,0,0,0-1.43.4,3.52,3.52,0,0,0-.41,1.22c-.54,5.34-1,10.68-1.46,16s-1,10.77-1.53,16.16a4.15,4.15,0,0,1-.86-2.26c-.14-3.36-.09-6.72-.34-10.07a3.7,3.7,0,0,0-1.42-2.64,32.43,32.43,0,0,1-12-11.78,14.54,14.54,0,0,0-1-1.33l-.5.1a17,17,0,0,0,0,2.94c.37,2.09.8,4.19,1.37,6.24,1.39,5.06,3,10.08,2.88,15.52a1,1,0,0,0,1.75.67c.47-.53.93-1,1.43-1.5a3.35,3.35,0,0,1,2.92-.92A1,1,0,0,1,48,40.57c-.66.59-1.25,1.11-1.87,1.58-7.23,5.41-12,12.33-13.51,21.39a31.55,31.55,0,0,1-12,20.17c-.82.64-1.65,1.27-2.49,1.88-2.44,1.8-5.59,4.17-6.32,5.21-2.79,4,6,13.79,15.33,7.93.06,0,8.88-5.52,12.59-9.09,1.56-1.5,3-2.62,4-1.22.43.57.17,1.9-6,6.91l-.07,0c-5.26,3.7-6.78,5.08-11.88,7.3-1.57.68-1,2.38,0,2.4a18.59,18.59,0,0,0,5.61-.63c3.83-.85,7.24-3.09,10.77-4.81,4-2,8.07-3.84,12.74-3.3.14,0,1.12,0,.66-.34-4.13-2.38-8.08-.86-12-.13A10.1,10.1,0,0,1,53,93.35a8,8,0,0,1,5.5,3.78,1,1,0,0,0,1.9-.36,12.12,12.12,0,0,0-1.54-6.39c-.22-.44-.43-.89-.63-1.36a1,1,0,0,1,1-1.4,3.83,3.83,0,0,1,3.59,3.27c.73,3.1,1.1,6.23-.32,9.28-1,2.29-2,4.65-3.13,6.87-3.07,5.83-6.26,11.59-9.38,17.4-.58,1.09-1.08,2.24-1.62,3.36,7.91-11.69,19.07-19.56,30.66-26.94-1.86,2-3.84,3.83-5.84,5.65s-4.09,3.64-6.13,5.46c3.64-1.22,17.56-11.09,20.1-13.92,5.09-5.66,5.85-12,3.05-18.93-2.17-5.32-6-9.25-10.7-12.48-.62-.43-1.23-.87-1.84-1.31a1.13,1.13,0,0,0-.21-.12c-7.29-2.94-11.55-4.27,1.52-3.4,16.58.84,27.51,12,30,16.14a7.74,7.74,0,0,1,.37.7c2.22,4.74,14.79,29.71,6.28,48.28,7.14-14.9,11.16-29.88,5.16-45.51a1,1,0,0,1,1.78-.9C124.5,83.32,126,86.28,127.51,89.17ZM40.13,71.4c-1.61,0-2.6-.9-2.61-1.61,0-1.41,1-2,2.51-3.32a29.13,29.13,0,0,1,4.11-2.82c2.32-1.34,4.28-.45,2.67,2.67C45.63,68.61,42.74,71.4,40.13,71.4ZM60.76,28.2l.25.39,2.51-.53,0-.19a1,1,0,0,1,1.81-.44c4.23,6,3.8,15.21-1.71,18.66,1.78-3.27,3.34-6.19,2.7-9.79-.37.76-.74,1.49-1.11,2.23l-2.7-.33-2.25-9.82ZM64.1,47.08C68.88,43.54,70.66,38.64,71,33c0-.45.06-.9.12-1.35,0-.1.13-.19.2-.28,4.79,4.79,3.44,13.42-2.87,16l1.85-2.91-.14-.16L59.05,52.76l-.48-.58A68.16,68.16,0,0,1,64.1,47.08Zm4.78,52.1c.19-3,.38-6.08.56-9C71,92,70.74,96.85,68.88,99.18Zm7.6-24.25c3.63,1.35,6.56,3.75,7.54,8,.87,4.56-10.34,16.48-10.68,14.54-.57-2.23.32-4.21,1-6a8.7,8.7,0,0,0-2.29-9.11c-2.93-2.68-6.73-4.59-10.88-6.67a13.34,13.34,0,0,0-1.61-.91c-.88-.45-2.74-1.51-1.16-2.59,1-.58,5.12-.27,7.62.17A60.93,60.93,0,0,1,76.48,74.93ZM95.65,58.52c-3.69-1.35-7.35-2.79-11.08-4-7.28-2.42-14.51-1.57-21.68.59-1.39.42-2.8.79-4.61,1.3a28,28,0,0,1,39.83,2.93C97,59,96.31,58.76,95.65,58.52Z" transform="translate(-11.26 -9.88)"/></svg>