<svg id="Capa_1" data-name="Capa 1" xmlns="http://www.w3.org/2000/svg" viewBox="0 0 478.78 127.27"><defs><style>.cls-1{font-size:60.28px;font-family:MagmawaveCaps-Bold, Magmawave Caps;font-weight:700;}.cls-2{letter-spacing:-0.09em;}.cls-3{letter-spacing:-0.04em;}.cls-4{letter-spacing:-0.08em;}.cls-5{letter-spacing:0em;}</style></defs><text class="cls-1" transform="translate(126.05 98.15)"><tspan class="cls-2">D</tspan><tspan class="cls-3" x="34.9" y="0">a</tspan><tspan x="77.59" y="0">rk </tspan><tspan class="cls-4" x="181.4" y="0">W</tspan><tspan class="cls-5" x="232.76" y="0">olf</tspan></text><path d="M73.49,131.77C89.3,119.9,99.12,105.22,99.06,85.61a1,1,0,0,1,1-1,1,1,0,0,1,.92.64,51.73,51.73,0,0,1,2.2,7.71c5,16.77-8.27,36.92-27.33,41.62C66.87,136.58,70.42,134.35,73.49,131.77Z" transform="translate(-10.53 -10.26)"/><path d="M41.69,137.53A37.62,37.62,0,0,1,52,125.22l.24-.22c4.33-2.65,8.61-5.4,13-7.92,2.51-1.44,5.23-2.55,7.83-3.74,3.4-1.55,6.79-3.11,9.59-5.74a1,1,0,0,1,1.6,1c-1.74,6.69-7.1,13.87-12.52,16.27a91.06,91.06,0,0,1-8.89,3.28,105.11,105.11,0,0,0-20.43,9A5.85,5.85,0,0,1,41.69,137.53Z" transform="translate(-10.53 -10.26)"/><path d="M124.35,87.94a2,2,0,0,0,0-.91,45.09,45.09,0,0,0-7.84-17.34c-2.69-3.59-5.71-6.93-8.58-10.38l-1.26-1.55a39.12,39.12,0,0,1,5.83,3.41c.41.37-2-3.36-2.36-3.76l-.29-.34c-1.58-1.86-3.35-3.56-5.2-5.49l5.29,2.83a17.78,17.78,0,0,0-3.92-4.2,40.08,40.08,0,0,0-4.66-2.93c-1.56-.9-3.18-1.72-4.78-2.57.06-.12.12-.22.17-.34l1.55.33a7.81,7.81,0,0,0-1.78-1c-12.73-6-24-14-33.12-24.89-2-2.43-3.92-5-5.88-7.42a4.63,4.63,0,0,0-1.14-1,1,1,0,0,0-1.36.3l0,.09A3.37,3.37,0,0,0,54.57,12c-.52,5.23-1,10.46-1.43,15.67s-1,10.55-1.49,15.83a4.08,4.08,0,0,1-.85-2.22c-.13-3.29-.08-6.58-.33-9.86a3.6,3.6,0,0,0-1.39-2.58A31.8,31.8,0,0,1,37.33,17.29a13.82,13.82,0,0,0-1-1.3l-.49.1a17.31,17.31,0,0,0,0,2.88c.36,2,.78,4.1,1.34,6.11C38.56,30,40.14,35,40,40.28a1,1,0,0,0,1.72.65c.46-.52.91-1,1.4-1.47a3.28,3.28,0,0,1,2.86-.9,1,1,0,0,1,.49,1.78c-.65.58-1.23,1.09-1.84,1.55-7.08,5.3-11.75,12.08-13.23,21A30.9,30.9,0,0,1,19.67,82.59c-.8.63-1.61,1.24-2.44,1.84-2.38,1.76-5.47,4.08-6.18,5.1-2.74,3.92,5.87,13.51,15,7.77.06,0,8.69-5.41,12.33-8.9,1.52-1.47,2.93-2.57,3.91-1.2.42.56.17,1.86-5.87,6.77h-.07c-5.15,3.62-6.64,5-11.63,7.15-1.54.66-1,2.33,0,2.35a18.49,18.49,0,0,0,5.49-.62c3.75-.83,7.09-3,10.55-4.71,3.91-2,7.9-3.76,12.47-3.23.14,0,1.1,0,.65-.33-4-2.34-7.91-.85-11.75-.13A9.87,9.87,0,0,1,51.38,92a7.83,7.83,0,0,1,5.39,3.7,1,1,0,0,0,1.3.46,1,1,0,0,0,.56-.81,11.9,11.9,0,0,0-1.51-6.26c-.22-.43-.42-.87-.62-1.33A1,1,0,0,1,57,86.5a.89.89,0,0,1,.48-.08A3.75,3.75,0,0,1,61,89.62c.71,3,1.07,6.1-.32,9.09-1,2.24-2,4.55-3.06,6.73-3,5.7-6.13,11.34-9.19,17-.56,1.07-1,2.2-1.58,3.29,7.74-11.44,18.67-19.15,30-26.38-1.82,2-3.76,3.75-5.72,5.54s-4,3.56-6,5.34c3.56-1.19,17.2-10.86,19.68-13.63,5-5.54,5.73-11.75,3-18.54-2.13-5.21-5.88-9-10.48-12.22-.61-.42-1.2-.85-1.8-1.28a.72.72,0,0,0-.21-.12C68.2,61.59,64,60.29,76.82,61.14,93.06,62,103.76,72.89,106.2,77c.13.22.25.45.36.68,2.18,4.65,14.49,29.1,6.15,47.28,7-14.59,9.84-31.22,4-46.53C116.47,77.88,122.87,85.11,124.35,87.94ZM38.78,70.53c-1.58,0-2.55-.88-2.56-1.57,0-1.38,1-2,2.46-3.25a27.63,27.63,0,0,1,4-2.76c2.27-1.32,4.19-.45,2.61,2.61C44.16,67.8,41.33,70.53,38.78,70.53ZM59,28.23a12.68,12.68,0,0,0,1.1,1.15A6.54,6.54,0,0,0,62,30.75h0a.31.31,0,0,0,.43-.37L61.8,28.3a1,1,0,0,1,.83-1.24h.15a.94.94,0,0,1,.68.41c4.14,5.87,3.72,14.89-1.68,18.27,1.74-3.2,3.27-6.06,2.65-9.59l-.7,1.4a1.25,1.25,0,0,1-1.27.68h0a2.53,2.53,0,0,1-2.16-2c-.6-2.67-1.69-7.5-1.81-7.88C58.33,27.87,58.88,28,59,28.23Zm3.27,18.49c4.68-3.47,6.43-8.27,6.76-13.79a9.81,9.81,0,0,1,.12-1.32c0-.1.12-.19.19-.28C74,36,72.69,44.48,66.51,47l1.81-2.85L68.19,44,57.31,52.28h0c-.55.34-.25-.8,0-1.09C58.91,49.62,60.55,48.13,62.25,46.72Zm4.68,51c.19-2.94.37-6,.55-8.82C69,90.71,68.75,95.46,66.93,97.74ZM74.37,74c3.56,1.32,6.43,3.67,7.39,7.84C82.61,86.29,71.63,98,71.3,96.06c-.56-2.18.31-4.12,1-5.87A8.53,8.53,0,0,0,70,81.27c-2.87-2.63-6.59-4.5-10.66-6.53a12.24,12.24,0,0,0-1.57-.9c-.87-.44-2.69-1.47-1.14-2.53,1-.57,5-.27,7.46.16A60.05,60.05,0,0,1,74.37,74ZM93.15,57.92C89.53,56.6,86,55.19,82.3,54c-7.13-2.37-14.21-1.53-21.23.58-1.36.41-2.75.78-4.52,1.28a27.42,27.42,0,0,1,39,2.86h0C94.47,58.39,93.79,58.16,93.15,57.92Z" transform="translate(-10.53 -10.26)"/></svg>