<svg xmlns="http://www.w3.org/2000/svg" viewBox="0 0 2139.68 1000"><defs><style>.cls-1{isolation:isolate;}.cls-2{fill:#f3f3f3;}.cls-3{opacity:0.6;mix-blend-mode:multiply;}.cls-4{fill:#dfdfdf;}.cls-5{fill:#dedede;}.cls-6{fill:#cccccb;}</style></defs><g class="cls-1"><g id="Capa_1" data-name="Capa 1"><path class="cls-2" d="M2009.46,253.8c-.2,51.12-17.59,95.94-52.39,133-33.55,35.7-76.8,57.12-124.73,59.43-54,2.61-104.28-13.8-144.9-53-41.31-39.92-60.81-89-60.26-145.46,1-98.95,78.35-187.34,191.39-187.25C1920,60.53,2009.71,144.22,2009.46,253.8Z"/><g class="cls-3"><path class="cls-4" d="M1934.41,164.32c.18-.26.36-.55.55-.84a4.67,4.67,0,0,0-1.27-.54c-.15,0-.57.55-.53.81C1933.25,164.44,1933.79,164.53,1934.41,164.32Z"/><path class="cls-4" d="M1694.08,141.55v0a4.07,4.07,0,0,0-.75-.38,4.07,4.07,0,0,1,.75.38Z"/><polygon class="cls-4" points="1922.54 148.21 1922.85 148.07 1922.56 147.84 1922.54 148.21"/><path class="cls-4" d="M1724.28,343.63l.42.29c0-.06.1-.13.14-.2s-.1.14-.14.2Z"/><path class="cls-4" d="M1915.69,175a41.85,41.85,0,0,1-3.3,7.87A41.85,41.85,0,0,0,1915.69,175Z"/><path class="cls-4" d="M1724.71,343.05c-.15.19-.29.39-.43.58.14-.19.28-.39.43-.58Z"/><path class="cls-4" d="M1875,238.44a6.54,6.54,0,0,1-1.58.27A6.54,6.54,0,0,0,1875,238.44Z"/><path class="cls-4" d="M1873.38,238.71a4.84,4.84,0,0,1-1.65-.23A4.84,4.84,0,0,0,1873.38,238.71Z"/><path class="cls-4" d="M2003.78,239.29h0a6.52,6.52,0,0,1,1.81,2A6.52,6.52,0,0,0,2003.78,239.29Z"/><path class="cls-4" d="M1820.7,306.79c-.93.45-.62,1.23-.46,2h0l.09,0c.61-.45,1.3-.88.87-1.81A.52.52,0,0,0,1820.7,306.79Z"/><path class="cls-4" d="M1899.43,208.37l.38-.25-.38.25Z"/><path class="cls-4" d="M1771.71,65.79a29.75,29.75,0,0,0,7.73.43c6.89-.61,13.31.1,18.18,5.84.74.88,2.06,1.41,1.53,2.84-.48,1.28-1.75,1.45-2.93,1.64-2,.32-3.94.48-5.22-1.63-.7-1.15-1.7-3.12-3-2.18-3.5,2.57-5.39-.52-7.82-1.68-3.54-1.7-14.5,2-14.06,5.25.82,6-3.57,5-6.33,5.46-3.93.69-8,.44-12,.59,5.48,1.71-1,6.77,3,9.27,3,1.89,5.33,5,10.21,5.39-2.12,1.78-3.48,2.81-4.7,4-1,.91-2.45,1.78-1.75,3.4.59,1.37,2,.6,3.15.79,3.74.64,5.71-1.29,7.53-4.26,7.25-11.86,18-13.29,27.9-3.75,2.37,2.28,4.42,2.26,6.67.24,3.32-3,6.15-4.19,8.85.92a5.41,5.41,0,0,0,5.6,2.58c.45-.08,1.17-.78,1.13-1.12-.34-2.73-3.31-1.55-4.56-3-.19-.21-.1-.68-.13-1,11.17-3.44,22,1.76,22.09,10.66,8.83-2,15.69,5.18,13.18,13.93-.68,2.38.4,3.66,1.86,5.13,1.13,1.13,3.55,1.16,3.27,4.07-4.31-.78-8.69-1.3-9.25,4.86,0,.26-.55.64-.89.68-5.88.71-3,4-2.08,6.79.67,2.06,3.55,3.23,1.93,6.27-1.93,3.61-1.66,7.57-.33,11.42.54,1.56.12,3.61-1.51,2.31-6-4.77-9.42.29-12.5,3.45a9.62,9.62,0,0,1-6.09,3.39c-2.21.35-5.63-.51-6.65,2.25-1.67,4.53,5.62,18.12,10.11,19.77,1.42.52,4.83-.58,3.81,1.95-1.2,3,1.66,7.11-3.3,9.15a41.56,41.56,0,0,1-12.75,3c-2.44.21-4.92,3.33-6.82-.37-1.56-3,.35-5.18,3-6.76.92-.54,3.21-1.27,1-2.56-1-.61-1.5-4.17-4.14-1.38-1.56,1.66-4,2.45-5.93,3.82s-4.87,1.06-5.35-.24c-2-5.57-4.74-1.63-7.24-.95-1.6.44-3,2.11-4.81,1.07-1-2.9,3.44-3.1,2.77-5.7-5.73-2-4.5,4.56-7.4,5.74-3.89,1.58-5.8-4.09-10.21-2.9-4.83,1.3-8.33-.8-10.51-6-2.39-5.65-5.83-6.2-10.64-2.47-1.91,1.49-3.66.84-5.56.91-3,.11-7.29-1.8-6.63,4.3.64,5.88-6.73.9-7.41,5.22,0,.19-.12.43,0,.58,2.21,4.32.46,7.5-3.59,10,8.12,2.56,8.73,3.44,5,7a18.52,18.52,0,0,1,2.33.61c1.88.78,4,2,3.46,4.15-.7,2.94-3,.14-4.35.6-3.82,1.3-7.24-2.23-11.71-1,4.28,4.79,6.39,10.6,12.38,12.87,1.84.7,3.52,2.83,1.59,4-5,2.89-2.23,4.77-.26,7.82,1.81,2.81,4.94,4.58,5.46,8.71.43,3.43,6,4,8.08,1.26,1.65-2.26,3.76-1.46,4.16.07,1.1,4.18,4.18,9.48.77,12.68-4.59,4.31-3.17,10.34-6.37,14.73-1,1.41.5,2.45,1,3.68,1.5,4,6.15,7.33,6.14,10.7,0,5.41,2.73,11.05-1,16.62,10.18-2.62,12.12-9.58,8.82-16.46a6.73,6.73,0,0,1-.77-4c1.84-8.28,3.45-16.81,10.51-22.54,3-2.43,1.47-3.33-.68-4.58-4-2.32-5.07-6.09-5.57-10.38-.61-5.18,2.34-9.26,3.47-13.85,1.63-6.58,10.07-10.6,15.9-6.69,2.31,1.55,5,3.26,6.17-1.38.36-1.49,1.51-1.53,2.79-1.43,2.3.18,2.93-1.42,2.24-3.05-2.74-6.54,7.38-10.28,3.59-17,0-.07.49-.53.82-.72,2.43-1.41,14.06,3.58,14.7,6.49.7,3.21,1.88,4.73,5.65,4.16s7.33.06,9.05,4.6c1.4,3.7,3.29,2.69,5-.18,1.39-2.39,2-5.43,5.55-6.09,7.65-1.41,17.57,3.85,20.79,11.45.08.19.16.36.24.53a2.38,2.38,0,0,0,2.76,1.59c.14-4.5,4-3.54,6.55-4.43-.48-2.4-2.88-2.43-4.36-3.6-1.29-1-2.41-2.39-.87-3.95,1.21-1.23,2.5-.51,3.67.43a6.3,6.3,0,0,1,2.25,7.37l2.64,5.68,12.43-.34,1-4.35c-.49-3.12-2.82-5.06-4.81-7.23-.39-.43-.78-.87-1.13-1.34a9.43,9.43,0,0,1-1.32-2.26,7.72,7.72,0,0,1-.29-.85,1.36,1.36,0,0,0-2-.68c-7,3.89-6.55-1.29-6.27-5.66-2.67.35-1.69,2.32-2.43,3.29a3.06,3.06,0,0,1-4.25.54c-2.23-1.39.6-2,.65-2.66.54-8.6,4.41-16.07,7.47-23.84.41-1-1.14-2.81-1.78-4.23-1.09-2.39-1.74-6.62-.29-7,3.66-.89,4.86-4.63,8.48-5.49a5.07,5.07,0,0,0,1.19-.45c2.49-1.32,3.12-4.59,3.37-7.57-2.16-.09-3.7,4.5-6.43.68-2-2.85-3.67-5.29.61-7.56,1.15-.61.83-1.63-.18-2.33-1.51-1-1.2-2.29-.41-3.6,1.31-2.15,4.18-5.65,3.68-6.22-2.8-3.21-4.62-7.17-7.53-10.12-2.05-2.08-4.24-4.39-4.1-6.84.37-6.59-3.71-9.51-8.72-10.61-4.8-1-6.68-4.21-9-8.1,3.16-.8,5.51.87,8.53,2.82-.82-4.91-2.58-9.09,1.44-12.62,2.71-2.39,4.46-2.63,5.34,1.19,1,4.36,2.67,6.27,8,6.43,3.37.1,4.41,5.49,3.33,9.56-1.14,4.3-.8,8,3.47,10.69,2.34,1.48,4.16,3.09,6.42,0,1.53-2.13,3.24-1.16,4.22.57,2.71,4.75,6.92,4.7,11.35,3.71s9.06-.43,13-3.21a2.66,2.66,0,0,1,2.24-.43c3.81,2.27,6.81.81,9.75-2.06-.64,3.51-1.85,6.39-5.13,7.75-5.92,2.48-7.35,6-4.52,12.55-6.58-.12-7.59,2.29-4.45,8,2.36,4.28,1.83,9.93,6.82,13.16,1.9,1.22.93,3.57-.9,5-.21,1-.47,2.06-.77,3.07a41.85,41.85,0,0,1-3.3,7.87c-.62,1.15-1.28,2.27-2,3.37-1.5,2.4-.47,4,1.21,4.86,2.32,1.13,2.25-1.45,2.69-2.71,1.94-5.49,7.54-9.37,6.94-16-.1-1.08,1-1.7,2-1.74s1.57.72,1.72,1.87c.55,4,1.18,8,1.86,11.94.4,2.33,1,4.64,3.3,5.91-.89-5.25,2.34-9.68,2.92-14.65.15-1.26.77-3,2.74-2.08,1.31.59,1.46,1.79.69,3-1.2,1.85-.6,3.13.86,4.62,2.45,2.5,7.25,4.45,10.77,3.95,1.11-.16,2.1-1.14,3.36-.32,1.77,1.13,4,1.88,5.19-.25s-.8-4-2.17-5.69c-1.69-2.06-4.38-3.48-4-6.85.54-4.43-.29-7.74-5.47-9.4-2.53-.8-2.17-8.83-7.82-3.16-.19.19-2.09-.94-2.85-1.76-2.68-2.89-5.69-4.73-9.7-3.55-1-5,3.36-7.14,4.58-10.8s.59-7.76,2.49-11.43c2.93-5.66,1.23-14.9-3.17-19.14-5.57-5.37-12.51-10.25-19.6-10.86-7.53-.64-12.5-4.66-16.65-8.78-3.66-3.63-7.32-7.91-11.81-7.7-6.86.33-11.37-4.28-17.08-5.41-3.91-.77-4.53-3.91-6.77-5.58-5.71-4.28-13-5.57-18.2-10.32-2.16-1.95-4.2-3.5-7.32-2.88a2.8,2.8,0,0,1-2.68-.58q-4.93-.27-9.92-.28A203.15,203.15,0,0,0,1771.71,65.79Zm-10.2,201.1c.76-.6,1.47-.22,1.62.66a1.61,1.61,0,0,1-.69,1.33c-.33.18-1-.15-1.61-.29C1761.11,267.86,1761.15,267.18,1761.51,266.89Zm.29-43.88c-3.9,1.69-10.34-.63-12.07-4.27-1.36-2.86.47-4.34,2.6-4.72,3.73-.67,8.09-4.41,11.16.9C1765.17,217.82,1766.32,221.2,1761.8,223Zm85.29-20.54c.07,1.22-1.52,2.46-2.48,1.7-2.6-2.06-7.77,2-8.73-4.19-1.52-2.54-2.57-5.26,2.72-4.88a3.25,3.25,0,0,0,1.73-.28c2.35-1.33,4.86-3.7,7.29-.82C1849.84,196.64,1846.9,199.57,1847.09,202.47Zm4.92-17c.89,1.64-.39,2.48-1.7,3.26-2-.3-4.55.3-5.13-2.67-.32-1.62-1.22-4.13,1.25-4.37S1850.84,183.24,1852,185.44Zm70.53-37.23,0-.37.29.23Zm-26.94-32.8c3.47-1.38,5.11,1.78,7,3.5.91,2.06,1,4.11-1.12,4.6-2.8.65-6.06.85-7.81-2.2C1892.36,119,1893.1,116.41,1895.6,115.41ZM1836,96.68c2.27-.9,4.64-1.05,6.37,1.08,1.26,1.57.55,2.88-1.17,3.83-2.32.92-4.51.7-6.08-1.56C1834.16,98.71,1834.37,97.3,1836,96.68Z"/><path class="cls-4" d="M1856.93,230.58a2.37,2.37,0,0,0,2.76,1.59h0A2.38,2.38,0,0,1,1856.93,230.58Z"/><path class="cls-5" d="M1708.44,390.74c-1.91-3.82-3.09-6.33-7.37-6.66-1.37-.11-2.85-.31-3.61-1.65-.44-.78.15-1.5.85-1.95a3.48,3.48,0,0,1,4.39.13c3,2.48,6.32,2.08,13,.62-13.83-1.88-6.79-5.48-4.29-9.1,2.7-3.91,7.67-6.65,7.34-12.2-.3-5,.87-5.65,5.49-3.48,3,1.42,7.76,5,8.07,4.62,4-5.15,5.55.43,6.71,1.82,3.59,4.32,6.93,4.58,11.07,1.12a33.78,33.78,0,0,1,4.55-2.72c-.67-1.63-1.14-4.23-2.83-4.2-5.65.11-11.27-5.29-15.84-2.85-7.36,3.92-7.67-6.76-13.16-4.8-1.08-3.73-4.21-6.35-4.75-10.61a107.68,107.68,0,0,0-3-16.33c-1.86-6.34.37-8.26,4.31-10.54,4.81-2.78,4.74-7.7,4.89-11.89.13-3.69-4.44-.49-6.22-2.33a1.36,1.36,0,0,0-.51-.29c-3-.95-8.49,2.23-8.92,5.36-.69,5-2.11,7.34-7.64,4.06-3.64-2.16-7.86-.18-9.53,3.25-1.13,2.33-3.2,6.79-.36,8.58,3.56,2.25,7.17.2,9-3.88a2.32,2.32,0,0,1,1.18-1.24c2-.56,4.6-.95,3.82,2.22-.88,3.59.4,5,3.51,6.08a5.13,5.13,0,0,1,3.12,4.74c-.38,6.06,3.36,11,4.06,16.64.43,3.53.31,6.54-4.92,5.05-2.56-.72-5.41-.4-8.13-.56-1.37-.08-3,1-2.46,1.76,3.06,4.49-.77,5.33-3.16,7.5-1.77,1.61-3.23,4.35-5.62,3-2.65-1.5-4-4.64-4.39-7.83-.32-2.63.47-3.74,3.54-4.61,2.31-.65,6.63-3.57,5-6.62-1-1.9-4.22-6.05-9.27-2-4.21,3.34-5.3,7.94-8.21,11.73-3.5-2-3.35-4.57-1-7.25,1.13-1.28,1.54-2.31.11-3.42-.86-.68-1.59-2.22-2.79-1.7-4.44,1.9-6.08-.17-7.16-4.19-1-3.67-1.73-8-7.44-7.12-1.45.23-2.26-1.3-3-2.47-3.09-4.63-3.69-10-3.8-15.23-.07-3.21,2.89-5.27,5.63-6.93.43-.26.5-1.06.82-1.55,2.2-3.46,4.24-4.81,8.53-1.91,6.23,4.22,9.39,2.14,9.18-5.39a5.74,5.74,0,0,1,1.87-4.66c.8-.79,2.52-2.13,1.62-2.73-4.57-3.06-2.77-8.37-4.79-12.25-.51-1-.71-2.54-2.19-2.41s-1.73,1.58-1.73,2.73c0,4.45-2.55,7.16-6,9.47-1.43,1-3.06,1.92-3.64,3.77-1.18,3.75-3.3,2.65-5.29.89-1.35-1.2-2.8-3.2-4.27-1-2.41,3.54-5.8,3.44-9.32,3.73-2.22.19-4,.86-4.41,3.78-.47,3.9-3,3.49-5.63,1.94a10.9,10.9,0,0,1-1.54-1.13c8,36.66,26.33,69.42,55.48,97.59a196.12,196.12,0,0,0,21.55,18C1711.31,404.61,1712.1,398.06,1708.44,390.74Zm-39.18-30.68c-7.11-.67-7.31-8.16-11.64-11.45-1-.75,1.16-4,2.81-4.46,2.5-.69.78,1.75,1.17,2.71a5,5,0,0,0,3,2.69C1669.07,351.48,1670.27,355,1669.26,360.06Z"/><path class="cls-4" d="M1877.11,220.41a9.43,9.43,0,0,1-1.32-2.26A9.43,9.43,0,0,0,1877.11,220.41Z"/><path class="cls-4" d="M1878.24,221.75c2,2.17,4.32,4.11,4.81,7.23h0C1882.56,225.86,1880.23,223.92,1878.24,221.75Z"/><path class="cls-4" d="M1915.69,175c.3-1,.56-2,.77-3.07h0C1916.25,173,1916,174,1915.69,175Z"/><path class="cls-4" d="M1879.65,163.59h0c-.25,3-.88,6.25-3.37,7.57C1878.78,169.84,1879.4,166.57,1879.65,163.59Z"/><path class="cls-4" d="M1878.24,221.75c-.39-.43-.78-.87-1.13-1.34C1877.46,220.88,1877.85,221.32,1878.24,221.75Z"/><path class="cls-4" d="M1799.09,341.27h0l0,0,0,0Z"/><path class="cls-4" d="M1890.54,288.35c-4.93-6.16-4.29-13.31-4.14-20.43.06-2.65-1.72-5.33.33-8,1.79-2.32,1.39-4.79,0-7.2-2.76-4.93.69-6.24,4.25-6,2.65.18,4.37.7,5.22-2.49a3.38,3.38,0,0,1,3.17-2.32c3.73-.11,4.94-2.49,5.59-5.65-4.8-.71-9.14-2.64-13.85-2.33-.09,1.51,2,3.1-.39,4.56-1.89,1.17-3.29.25-4.77-.61-1.16-.67-2.25-1.46-3.38-2.21-2.7-.11-5.08,2-7.65,2.75a6.54,6.54,0,0,1-1.58.27,4.84,4.84,0,0,1-1.65-.23,6.38,6.38,0,0,1-1.75-.88c-3,1.5-5.1-1.6-7.84-1.38a2.6,2.6,0,0,0-.37.45c-1.21,2.4-3.71,5.07-1.78,7.51,2.06,2.6,3.1-1.85,5.34-1.89s4.27-.2,5,2c1,2.92-2.12,2-3.36,2.84-3.44,2.3-7.78,2.43-11.3,4.9-3.09,2.17-13.86-1.91-15.45-5.25-3.63-7.6-20.14-11.7-27-6.64a7.75,7.75,0,0,0-1.62,2.39,20.19,20.19,0,0,0-2.31,15.88c.83,3.09,0,5.36-2.77,7-2.52,1.47-4.66,1.94-6.52-1-.88-1.4-2.23-.84-3.68-.44a50.38,50.38,0,0,0-18.5,9.4c-1.89,1.51-3.57,2.25-3.45-1.47a2.23,2.23,0,0,0-2.53-2.58c-3.55.29-3.62,3.77-5.18,5.87-.7.93-.54,1.9.79,2.19,6.24,1.36,4.24,6.62,4.44,10.36.14,2.55-.77,4.69,1.95,6.67,3.22,2.34,3.63,5.28.69,8.73s-1.32,9.58,2.63,11.6c2.24,1.15,7,1.17,4.85,4.69s-4.43-.83-6.53-2.13-4.37-3.63-6.74-1.13c-2,2.14-.56,4.23,1.2,6.16,2.62,2.9,3.18,5.11-.23,8.82s-5.44,9.56-3.41,14.79c2.42,6.25-.32,11.8-7,12.14a2.42,2.42,0,0,0-1.59.64,3,3,0,0,0-.86,1.55c3.85,4.43,7.39,2,10.55-.77,1.75-1.56,3.28-3.36,5.35-4.52,3.36-1.88,7.51-3.3,4-8.5a1.9,1.9,0,0,1,.89-2.55c6.35-2.64,6.47-14.38,16.7-11.45.5.14,1.45-1.16,2.16-1.82s1.61-2.07,2.88-1a2.07,2.07,0,0,1-.15,3.16c-3.06,2.81-1.72,5.61-.24,8.47,3.59-4.07,8.35-6.12,13.4-4.87,4.32,1.06,6.94,0,9.45-3.11.88-1.08,4.46-.3,2.67-3.07-1.36-2.1-3,0-4.51.79-3.31,1.82-9.38-1.73-9.52-5.51,0-1,0-2.07,1.12-2.49a2,2,0,0,1,2.52,1c2.88,4.91,6,1.73,9,.28,3.2-1.58,4-4.1,2.28-7.38-1.36-2.67-.39-5.41.23-8.06.32-1.34,1.31-3,0-3.83-3-2-1.07-3.11.17-4.95,4-5.88,4.94-12.12,1.26-18.62a7.17,7.17,0,0,1-.41-2.22c4.6.81,5.19-5.28,9-5.38,3.31-.08,6.38-2.09,9.88-.78a2.13,2.13,0,0,0,2.94-2.54c-1.1-4.83,3.32-5.67,5.12-4.92,5.1,2.12,9.94,0,15.63,0-3.13,4.39-3.21,8.82-.94,12.41s3.41,7.88,5.56,11.66c4.17,7.31,7.51,9.19,15.43,6.91C1887.89,293.56,1892.87,291.27,1890.54,288.35Zm-72.74-13.11c.18,2.54-2.59,2.93-4.79,3.26-2.87.43-4.8-1.28-6.67-2.92-.78-.69,0-1.78.26-2.71,1.52-4.71,4.61-8.32,8-12.21,1.52,1.94.51,4.34,3.36,5.77C1821.74,268.33,1817.58,272.15,1817.8,275.24Zm22-9.74c-2,.34-4.88,2.58-6.14-1.19-.76-2.31,1-4.23,3-5.15,3.19-1.5,4.66,1.22,5.8,3.35S1841.59,265,1839.84,265.5Z"/><path class="cls-4" d="M1862.14,236.22a2.6,2.6,0,0,0-.37.45,2.6,2.6,0,0,1,.37-.45Z"/><path class="cls-4" d="M1756.89,360.2h0a3,3,0,0,1,.86-1.55A3,3,0,0,0,1756.89,360.2Z"/><polygon class="cls-4" points="1944.03 355.91 1944.02 355.9 1944.02 355.9 1944.03 355.91"/><path class="cls-4" d="M1953.72,285.93c6.31-.38,6.54.27,4.39,6.3-1,2.72-4.76,2.77-4.73,5.6.06,4.21-3.46,5.51-5.59,8-.53.6-.37.69-6.6-1.42-1.93-.65-3.88-.09-5.78.4,1,2.74,2.21,5.43,3.22,8.09,1.67,4.36,5.38,9.3.37,14.11-1.67,1.61-.7,3.22.32,4.77.64,1,1.91,2.14,1.72,2.93-.72,2.86-6.57,6.54,1.63,7.43a15,15,0,0,1-.76,2.76c-2.05,4.23-2.4,8.09,2.11,11,1.82-.51,3.68-2.49,5.5-1,2.64,2.2,4.57,5.15,7.84,6.76.88.43-7.68,12.5-9,12-7.84-2.86-7.24,2.7-8.72,7.53-1.7,5.55,1.46,4,4,3.57,6.15-1.17,8.29-9.27,15.35-9.07.23,0,.63-1,.69-1.54.43-3.58,3-6.14,5-8.52,3.86-4.57,9.72-7.88,5.63-15.25-.18-.32.37-1.08.66-1.59,2.79-4.93,7-9.18,11.93-10.79,5.32-1.72,7.47-5.8,7.41-9.4-.09-5.69,4.52-6.4,7-9.27,1.19-1.38,5.75-11.62,4.9-13.29-.3-.6-1.14-1.36-1.71-1.34-6.83.24-13.37-.54-19.08-4.75,1.1,2,1.62,4.43,3.43,5.8a5.13,5.13,0,0,0,2.31,1,2.24,2.24,0,0,1,1.43.89c.63,1-2.52,11.93-3.72,12.28-5.43,1.6-7.62,6.81-9.18,10.79-1.78,4.52-4.93,7.63-8.08,10.69a50.73,50.73,0,0,0-5.37,5.79v.06c.09,1.23.07,2.49-1.51,2.71-2.65.36-3.64-2.86-6.2-2.94-3.18-.09-1.84-3.16-2.65-4.26-4.85-6.63-.67-14.47-3.7-21.3-2.58-5.85,2.45-9.61,6-12.75,2.15-1.91,4.84-3.64,7.05-5.61,1.94.92.46,3.74,3.3,4.37-.08-5.54,4.77-7.44,7.9-10.58,2.6-2.59,5.88-3.51,8.19.83.75-7.83-4.53-16-11.77-17.88-2.8-.72-3-2.64-3.08-4.89C1959.56,274.27,1955,278.49,1953.72,285.93Z"/><path class="cls-5" d="M1904.42,309.41c-.09-1.06-1.71-2-2.62-3-2,1.29-1.86,3.24-1.64,5.26s-.38,3.59-2.81,3.5c-4.3-.17-5.74,1.37-3.85,5.61.48,1.08,0,2.73-.37,4-.74,2.81-.33,4.06,3.07,4.74,3.65.73,6.23,3.3,4.23,7.8-.52,1.18-1.56,2.63-.3,3.82s2.53.06,3.57-.84c2.61-2.26,4.64-2.41,5.18,1.61.27,1.93,3,2.78,2.11,5.25-2.1.79-4.1-.64-6.61.57-7.7,3.69-8.53,10.66-9.39,17.5-.38,3,.7,6.17-1.71,8.87a3,3,0,0,0,0,3.87c1.08,1.52,2.7,1.46,4.28,1.11a8,8,0,0,0,4.39-2.81c1.25-1.47,11.58.17,12.61,1.84.87,1.4-.36,2-.82,3-1.68,3.7-5.45,5.88-6.89,9.89,4.22-2.37,7.83-5.5,12-7.82,1.85-1,1.83-3.52,1.26-5.43-2-6.48-.12-11.73,4-17,1.89-2.44,5.91-6.32,4.1-8.54-3.72-4.58-4.36-12.09-12.4-13.17-5.56-.74-6.81-5.45-4.5-10.56,2-4.38,5.1-8.4,5.08-13.55C1911.44,315.11,1905.16,318.34,1904.42,309.41Z"/><path class="cls-4" d="M1962.2,347.18h0a50.73,50.73,0,0,1,5.37-5.79A50.73,50.73,0,0,0,1962.2,347.18Z"/><path class="cls-4" d="M1984.81,305.78c-1.81-1.37-2.33-3.83-3.43-5.8h0C1982.48,302,1983,304.41,1984.81,305.78Z"/><path class="cls-4" d="M1934.82,207.36c-3.73,1.91-2.13,5.31-3,8.08-1.71,5.7,2.4,12.39-3.15,17.34a1.29,1.29,0,0,0,.89,2.19c3.16-.18,2.51,2.37,3.61,3.86a45.11,45.11,0,0,1,5.48,9.38c.39.93,2.2,1.56,2.41.94,1.51-4.54,6.7-2.43,8.72-4.78,4.09-4.78,5.64-1.89,7.49,1.59,1.87-1.18,5.84-2.58,3.6-4.69-4.13-3.89-5-7.89-4.19-13,.31-1.88-1.81-2.33-2.84-3.43-2.85-3-7-3.61-9.73-8-3.3-5.23-5.25-10.35-5.55-15.85s-2.1-7.91-7.2-8.43c1.43,3.65,1.32,7.79,3.83,11.1C1936.11,204.8,1936.12,206.69,1934.82,207.36Z"/><polygon class="cls-4" points="2003.75 239.27 2003.75 239.27 2003.79 239.28 2003.75 239.27"/><path class="cls-5" d="M1991.88,252.67c3.86-4.29,7-9.64,11.9-13.38l0,0h0l.09-.25,0,.26h0a6.52,6.52,0,0,1,1.81,2c1.38,2.32,1.65,5.27,3.6,7.25.51-5.05-1.44-9.86-1.3-15,.12-4.5-4.3,2.6-5.64-1.1-.89-2.42-.54-5.86-4.61-5.67-7.64.37-16.12,10.81-14.66,18.27,1,5,1.65,9.9.28,15.09-.66,2.52-1.55,6.65,3.44,7.15C1986.54,261.75,1987.41,257.63,1991.88,252.67Z"/><path class="cls-4" d="M2003.75,239.27h0l0,0h0Z"/><path class="cls-4" d="M2003.79,239.28h0l0,0Z"/><path class="cls-4" d="M1790.29,349.73c1.11,2.11,4.2,3.68,5.38,2.62,4.5-4,7.61-1.14,11,1.26,1.06.74,2.29,1.17,3.09-.1a1.92,1.92,0,0,0-1.53-3.08c-4.73-.17-4-7.25-9-6.94,0,0-.16-1.42-.24-2.21-2.28,1.15-4.65,2.15-6.8,3.49C1790.51,345.85,1789.14,347.53,1790.29,349.73Z"/><path class="cls-4" d="M1799.05,341.28h0l0,0Z"/><polygon class="cls-4" points="1799.04 341.25 1799.09 341.26 1799.09 341.26 1799.04 341.25"/><path class="cls-4" d="M2003,291.06c-2,3.32-1.76,5.88,1.46,7.83q1.79-7.83,2.93-15.91c0-.13-.1-.26-.16-.39C2005.73,285.59,2004.56,288.45,2003,291.06Z"/><path class="cls-4" d="M1968.52,374.31c1.42-1,3.37-2.14,2.65-4.23-1.16,1.54-2.36,3.07-3.58,4.59A6.81,6.81,0,0,0,1968.52,374.31Z"/><path class="cls-4" d="M1966.48,369.05c-1.88.73-2.78,2.26-2,4.22.59,1.55,1.73,1.83,3.14,1.4,1.22-1.52,2.42-3.05,3.58-4.59a1.33,1.33,0,0,0-.05-.19C1970.32,367.91,1968.14,368.39,1966.48,369.05Z"/><path class="cls-4" d="M1889.46,296.63c1.16,4.79,3.9,7.31,9.08,6.3l1.31-.69C1897.17,298.92,1892.83,298.69,1889.46,296.63Z"/><path class="cls-4" d="M1899.85,302.24h0l.08-.05Z"/><path class="cls-4" d="M1968.65,230c-.16-3,1.75-5.16,3.11-9C1963.74,227.08,1963.74,227.08,1968.65,230Z"/><path class="cls-4" d="M1929.5,373.33c2.91-2.19,4.71-4,5.41-7.06C1929.65,365.71,1929.13,368.65,1929.5,373.33Z"/><path class="cls-4" d="M1902.33,303.54c-.48-.73-1.24-.54-1.93-.23l1.35,2.1C1902.29,304.89,1902.81,304.28,1902.33,303.54Z"/><path class="cls-4" d="M1968.42,271.85c.15.43.3.85.46,1.27A.81.81,0,0,0,1968.42,271.85Z"/><path class="cls-4" d="M1966.18,270.33a3,3,0,0,0-.51-1Q1965.25,270.21,1966.18,270.33Z"/><path class="cls-4" d="M1968.21,273.93a4.93,4.93,0,0,0,.63-.73l-1.13.72C1967.88,273.93,1968.11,274,1968.21,273.93Z"/><path class="cls-4" d="M1700.53,192c-2.46-.56-1.47,2.28-2.61,3.18-.75.6-1.24,1.53-2,2.17-6.6,5.67-7.57,9.63-3.88,18.12,1.12,1.44,3,4.82,4.46,5.31,6,2.06,7.36-4.3,10.34-7.46,2.31-2.45,5.35-6.94,1.85-9-3.9-2.26-4.25-5.2-5.1-8.42C1703.13,194,1702.35,192.38,1700.53,192Z"/><path class="cls-4" d="M1696.63,146.05c3.39.74,9.2-8.52,7.63-11.77-1.32-1-1.36-3.66-3.39-3.59s-1.62,2.37-2.12,3.76c-.67,1.9-2.34,2.57-3.9,3.38-2.88,1.51-6.31,3.59-5.49,6.8C1690,147.19,1694.11,145.5,1696.63,146.05Zm-3.29-4.9a4.07,4.07,0,0,1,.75.38v0l-.35.4-.75-.41C1693.1,141.4,1693.26,141.13,1693.34,141.15Z"/><path class="cls-4" d="M1706.26,269c-.53,2.59,1.52,3.29,3.48,3.91a11.46,11.46,0,0,1,1.56.73c-.56,2.35-3.65,3.5-2.77,6.31a3.25,3.25,0,0,0,1.14,1.86c.81.43,1.45-.32,1.74-1.08,2-5.18,8.15-8.66,6.17-15.78-2,1.74-4.38,2-7,1.93C1709,266.82,1706.73,266.7,1706.26,269Z"/><path class="cls-4" d="M1718.52,320.31c-1.52,1-.52,2.46,0,3.7,1.07,2.7,2.16,5.4,3.25,8.11,5.33-5.67,5.62-8.48,1.22-11.44A3.88,3.88,0,0,0,1718.52,320.31Z"/><path class="cls-4" d="M1698.56,341c.15,2.84,2.11,3.84,4.4,3.48,2.8-.44,1.51-2.5,1-4.14s-.83-3.4-1.35-5.52c-.56-1.2-1.25-3.28-3.45-2.56-1.91.63-1.13,2.58-1,4.1S1698.47,339.48,1698.56,341Z"/><path class="cls-4" d="M1724.71,343.05c-.15.19-.29.39-.43.58l.42.29c0-.06.1-.13.14-.2a.34.34,0,0,0,.08-.2.57.57,0,0,0-.08-.24C1724.8,343.2,1724.74,343.12,1724.71,343.05Z"/><path class="cls-4" d="M1724.71,343.05h0c0,.07.09.15.13.23C1724.8,343.2,1724.74,343.12,1724.71,343.05Z"/><path class="cls-4" d="M1904.87,164.45a18,18,0,0,0,1.06,4.82,7,7,0,0,0,.89,1.61c1.73,2.27,4.69,2.47,9.62,1.06C1913.61,167.86,1910.8,163.76,1904.87,164.45Z"/><path class="cls-4" d="M1906.82,170.88a7,7,0,0,1-.89-1.61A7,7,0,0,0,1906.82,170.88Z"/><path class="cls-4" d="M1906.82,170.88c1.74,2.28,4.69,2.47,9.62,1.06h0C1911.51,173.35,1908.55,173.15,1906.82,170.88Z"/><path class="cls-4" d="M1896.67,211.19c-2.64,1.89-3.42,4.44-2,9,1.31-3.7,4.18-5.23,3.32-8.42C1897.9,211.47,1896.88,211,1896.67,211.19Z"/><path class="cls-4" d="M1909.36,240.24a1.64,1.64,0,0,0-.92,2.36c.63,1.59,1.77,2.63,3.55,1.79a2.27,2.27,0,0,0,1.36-2.88A3.33,3.33,0,0,0,1909.36,240.24Z"/><path class="cls-4" d="M1899.26,207.32c-.14.1-.3.19-.29.22a5.63,5.63,0,0,0,.46.83l.38-.25s0,0,0-.05a6.73,6.73,0,0,0-.46-.83Z"/><path class="cls-4" d="M1899.26,207.32l.13-.08a6.73,6.73,0,0,1,.46.83,6.73,6.73,0,0,0-.46-.83Z"/><path class="cls-4" d="M1899.42,208.37h0a5.63,5.63,0,0,1-.46-.83A6.66,6.66,0,0,0,1899.42,208.37Z"/><polygon class="cls-4" points="1820.14 309.18 1820.33 308.78 1820.24 308.75 1820.14 309.18"/><polygon class="cls-4" points="1820.24 308.75 1820.14 309.18 1820.24 308.75 1820.24 308.75"/><polygon class="cls-4" points="1961.77 347.07 1962.18 347.24 1962.19 347.21 1962.2 347.18 1961.77 347.07"/><path class="cls-4" d="M1962.19,347.21v0h0Z"/><polygon class="cls-4" points="2003.84 239.03 2003.75 239.27 2003.79 239.28 2003.84 239.03"/><path class="cls-4" d="M1694.08,141.55v0a4.07,4.07,0,0,0-.75-.38c-.08,0-.24.25-.36.39l.75.41Z"/><path class="cls-4" d="M1694.08,141.55l-.35.4-.75-.41.75.41Z"/></g><g class="cls-3"><path class="cls-6" d="M1632,295.57a10.9,10.9,0,0,0,1.54,1.13c2.63,1.55,5.16,2,5.63-1.94.36-2.92,2.19-3.59,4.41-3.78,3.52-.29,6.91-.19,9.32-3.73,1.47-2.16,2.92-.16,4.27,1,2,1.76,4.11,2.86,5.29-.89.58-1.85,2.21-2.81,3.64-3.77,3.44-2.31,6-5,6-9.47,0-1.15.29-2.6,1.73-2.73s1.68,1.44,2.19,2.41c2,3.88.22,9.19,4.79,12.25.9.6-.82,1.94-1.62,2.73a5.74,5.74,0,0,0-1.87,4.66c.21,7.53-3,9.61-9.18,5.39-4.29-2.9-6.33-1.55-8.53,1.91-.32.49-.39,1.29-.82,1.55-2.74,1.66-5.7,3.72-5.63,6.93.11,5.24.71,10.6,3.8,15.23.79,1.17,1.6,2.7,3,2.47,5.71-.88,6.45,3.45,7.44,7.12,1.08,4,2.72,6.09,7.16,4.19,1.2-.52,1.93,1,2.79,1.7,1.43,1.11,1,2.14-.11,3.42-2.35,2.68-2.5,5.26,1,7.25,2.91-3.79,4-8.39,8.21-11.73,5-4,8.28.13,9.27,2,1.6,3.05-2.72,6-5,6.62-3.07.87-3.86,2-3.54,4.61.39,3.19,1.74,6.33,4.39,7.83,2.39,1.36,3.85-1.38,5.62-3,2.39-2.17,6.22-3,3.16-7.5-.55-.8,1.09-1.84,2.46-1.76,2.72.16,5.57-.16,8.13.56,5.23,1.49,5.35-1.52,4.92-5.05-.7-5.68-4.44-10.58-4.06-16.64a5.13,5.13,0,0,0-3.12-4.74c-3.11-1.1-4.39-2.49-3.51-6.08.78-3.17-1.82-2.78-3.82-2.22a2.32,2.32,0,0,0-1.18,1.24c-1.87,4.08-5.48,6.13-9,3.88-2.84-1.79-.77-6.25.36-8.58,1.67-3.43,5.89-5.41,9.53-3.25,5.53,3.28,7,.92,7.64-4.06.43-3.13,5.88-6.31,8.92-5.36a1.36,1.36,0,0,1,.51.29c1.78,1.84,6.35-1.36,6.22,2.33-.15,4.19-.08,9.11-4.89,11.89-3.94,2.28-6.17,4.2-4.31,10.54a107.68,107.68,0,0,1,3,16.33c.54,4.26,3.67,6.88,4.75,10.61,5.49-2,5.8,8.72,13.16,4.8,4.57-2.44,10.19,3,15.84,2.85,1.69,0,2.16,2.57,2.83,4.2l2.2-1.09h0a3,3,0,0,1,.86-1.55,2.42,2.42,0,0,1,1.59-.64c6.67-.34,9.41-5.89,7-12.14-2-5.23,0-11.12,3.41-14.79s2.85-5.92.23-8.82c-1.76-1.93-3.24-4-1.2-6.16,2.37-2.5,4.64-.18,6.74,1.13s4.46,5.55,6.53,2.13-2.61-3.54-4.85-4.69c-4-2-5.53-8.18-2.63-11.6s2.53-6.39-.69-8.73c-2.72-2-1.81-4.12-1.95-6.67-.2-3.74,1.8-9-4.44-10.36-1.33-.29-1.49-1.26-.79-2.19,1.56-2.1,1.63-5.58,5.18-5.87a2.23,2.23,0,0,1,2.53,2.58c-.12,3.72,1.56,3,3.45,1.47a50.38,50.38,0,0,1,18.5-9.4c1.45-.4,2.8-1,3.68.44,1.86,3,4,2.5,6.52,1,2.8-1.65,3.6-3.92,2.77-7a20.19,20.19,0,0,1,2.31-15.88,7.75,7.75,0,0,1,1.62-2.39c6.83-5.06,23.34-1,27,6.64,1.59,3.34,12.36,7.42,15.45,5.25,3.52-2.47,7.86-2.6,11.3-4.9,1.24-.83,4.35.08,3.36-2.84-.73-2.15-2.83-2-5-2s-3.28,4.49-5.34,1.89c-1.93-2.44.57-5.11,1.78-7.51a2.6,2.6,0,0,1,.37-.45h0l-2.46-4.05h0a2.37,2.37,0,0,1-2.76-1.59c-.08-.17-.16-.34-.24-.53-3.22-7.6-13.14-12.86-20.79-11.45-3.59.66-4.16,3.7-5.55,6.09-1.67,2.87-3.56,3.88-5,.18-1.72-4.54-5.31-5.17-9.05-4.6s-4.95-1-5.65-4.16c-.64-2.91-12.27-7.9-14.7-6.49-.33.19-.86.65-.82.72,3.79,6.69-6.33,10.43-3.59,17,.69,1.63.06,3.23-2.24,3.05-1.28-.1-2.43-.06-2.79,1.43-1.13,4.64-3.86,2.93-6.17,1.38-5.83-3.91-14.27.11-15.9,6.69-1.13,4.59-4.08,8.67-3.47,13.85.5,4.29,1.58,8.06,5.57,10.38,2.15,1.25,3.68,2.15.68,4.58-7.06,5.73-8.67,14.26-10.51,22.54a6.73,6.73,0,0,0,.77,4c3.3,6.88,1.36,13.84-8.82,16.46,3.71-5.57,1-11.21,1-16.62,0-3.37-4.64-6.67-6.14-10.7-.46-1.23-2-2.27-1-3.68,3.2-4.39,1.78-10.42,6.37-14.73,3.41-3.2.33-8.5-.77-12.68-.4-1.53-2.51-2.33-4.16-.07-2,2.79-7.65,2.17-8.08-1.26-.52-4.13-3.65-5.9-5.46-8.71-2-3.05-4.73-4.93.26-7.82,1.93-1.12.25-3.25-1.59-4-6-2.27-8.1-8.08-12.38-12.87,4.47-1.2,7.89,2.33,11.71,1,1.37-.46,3.65,2.34,4.35-.6.51-2.15-1.58-3.37-3.46-4.15a18.52,18.52,0,0,0-2.33-.61c3.76-3.58,3.15-4.46-5-7,4-2.51,5.8-5.69,3.59-10-.08-.15,0-.39,0-.58.68-4.32,8,.66,7.41-5.22-.66-6.1,3.65-4.19,6.63-4.3,1.9-.07,3.65.58,5.56-.91,4.81-3.73,8.25-3.18,10.64,2.47,2.18,5.16,5.68,7.26,10.51,6,4.41-1.19,6.32,4.48,10.21,2.9,2.9-1.18,1.67-7.74,7.4-5.74.67,2.6-3.82,2.8-2.77,5.7,1.85,1,3.21-.63,4.81-1.07,2.5-.68,5.21-4.62,7.24.95.48,1.3,3.37,1.65,5.35.24s4.37-2.16,5.93-3.82c2.64-2.79,3.1.77,4.14,1.38,2.19,1.29-.1,2-1,2.56-2.65,1.58-4.56,3.73-3,6.76,1.9,3.7,4.38.58,6.82.37a41.56,41.56,0,0,0,12.75-3c5-2,2.1-6.19,3.3-9.15,1-2.53-2.39-1.43-3.81-1.95-4.49-1.65-11.78-15.24-10.11-19.77,1-2.76,4.44-1.9,6.65-2.25a9.62,9.62,0,0,0,6.09-3.39c3.08-3.16,6.51-8.22,12.5-3.45,1.63,1.3,2-.75,1.51-2.31-1.33-3.85-1.6-7.81.33-11.42,1.62-3-1.26-4.21-1.93-6.27-.9-2.81-3.8-6.08,2.08-6.79.34,0,.87-.42.89-.68.56-6.16,4.94-5.64,9.25-4.86.28-2.91-2.14-2.94-3.27-4.07-1.46-1.47-2.54-2.75-1.86-5.13,2.51-8.75-4.35-15.92-13.18-13.93-.13-8.9-10.92-14.1-22.09-10.66,0,.35-.06.82.13,1,1.25,1.42,4.22.24,4.56,3,0,.34-.68,1-1.13,1.12a5.41,5.41,0,0,1-5.6-2.58c-2.7-5.11-5.53-3.9-8.85-.92-2.25,2-4.3,2-6.67-.24-9.95-9.54-20.65-8.11-27.9,3.75-1.82,3-3.79,4.9-7.53,4.26-1.1-.19-2.56.58-3.15-.79-.7-1.62.8-2.49,1.75-3.4,1.22-1.18,2.58-2.21,4.7-4-4.88-.41-7.19-3.5-10.21-5.39-4-2.5,2.48-7.56-3-9.27,4-.15,8.11.1,12-.59,2.76-.48,7.15.5,6.33-5.46-.44-3.2,10.52-7,14.06-5.25,2.43,1.16,4.32,4.25,7.82,1.68,1.29-.94,2.29,1,3,2.18,1.28,2.11,3.22,2,5.22,1.63,1.18-.19,2.45-.36,2.93-1.64.53-1.43-.79-2-1.53-2.84-4.87-5.74-11.29-6.45-18.18-5.84a29.75,29.75,0,0,1-7.73-.43,185.55,185.55,0,0,0-114.93,81.62c.42,1.36-.36,1.94-1.4,2.23a190.82,190.82,0,0,0-28.2,98.07A212.33,212.33,0,0,0,1632,295.57Zm67.25,36.72c2.2-.72,2.89,1.36,3.45,2.56.52,2.12.88,3.83,1.35,5.52s1.75,3.7-1,4.14c-2.29.36-4.25-.64-4.4-3.48-.09-1.55-.18-3.1-.33-4.64S1697.3,332.92,1699.21,332.29Zm25.63,11.43c0,.07-.1.14-.14.2l-.42-.29c.14-.19.28-.39.43-.58h0c0,.07.09.15.13.23a.57.57,0,0,1,.08.24A.34.34,0,0,1,1724.84,343.72Zm-3.09-11.6c-1.09-2.71-2.18-5.41-3.25-8.11-.5-1.24-1.5-2.7,0-3.7a3.88,3.88,0,0,1,4.45.37C1727.37,323.64,1727.08,326.45,1721.75,332.12ZM1800.53,166c3.16-.93,6.39-.67,8.33,2.27,1.18,1.79.26,3.77-2.21,5a8.73,8.73,0,0,1-7.83-3.33C1797.3,168.15,1798.62,166.52,1800.53,166Zm-83,99c2,7.12-4.15,10.6-6.17,15.78-.29.76-.93,1.51-1.74,1.08a3.25,3.25,0,0,1-1.14-1.86c-.88-2.81,2.21-4,2.77-6.31a11.46,11.46,0,0,0-1.56-.73c-2-.62-4-1.32-3.48-3.91.47-2.3,2.71-2.18,4.36-2.12C1713.2,267,1715.57,266.69,1717.58,265Zm-8.86-60.64c3.5,2,.46,6.52-1.85,9-3,3.16-4.32,9.52-10.34,7.46-1.44-.49-3.34-3.87-4.46-5.31-3.69-8.49-2.72-12.45,3.88-18.12.73-.64,1.22-1.57,2-2.17,1.14-.9.15-3.74,2.61-3.18,1.82.42,2.6,2,3.09,3.93C1704.47,199.11,1704.82,202.05,1708.72,204.31Zm-13.87-66.48c1.56-.81,3.23-1.48,3.9-3.38.5-1.39.13-3.68,2.12-3.76s2.07,2.61,3.39,3.59c1.57,3.25-4.24,12.51-7.63,11.77-2.52-.55-6.61,1.14-7.27-1.42C1688.54,141.42,1692,139.34,1694.85,137.83Z"/><path class="cls-6" d="M1926.85,184.47c-.68-4-1.31-7.95-1.86-11.94-.15-1.15-.56-1.92-1.72-1.87s-2.11.66-2,1.74c.6,6.63-5,10.51-6.94,16-.44,1.26-.37,3.84-2.69,2.71-1.68-.82-2.71-2.46-1.21-4.86.69-1.1,1.35-2.22,2-3.37a41.85,41.85,0,0,0,3.3-7.87c.3-1,.56-2,.77-3.07h0c-4.93,1.41-7.88,1.22-9.62-1.06a7,7,0,0,1-.89-1.61,18,18,0,0,1-1.06-4.82c-2.88-1.9-5.84-3.72-8.65-5.73-6.77-4.85-12.94-3.07-16.57,4.87h0c-.25,3-.87,6.25-3.37,7.57a5.07,5.07,0,0,1-1.19.45c-3.62.86-4.82,4.6-8.48,5.49-1.45.34-.8,4.57.29,7,.64,1.42,2.19,3.21,1.78,4.23-3.06,7.77-6.93,15.24-7.47,23.84,0,.68-2.88,1.27-.65,2.66a3.06,3.06,0,0,0,4.25-.54c.74-1-.24-2.94,2.43-3.29-.28,4.37-.7,9.55,6.27,5.66a1.36,1.36,0,0,1,2,.68,7.72,7.72,0,0,0,.29.85,9.43,9.43,0,0,0,1.32,2.26c.35.47.74.91,1.13,1.34,2,2.17,4.32,4.11,4.81,7.23h0c3.12,1,7,.73,8.1,5,4.71-.31,9,1.62,13.85,2.33-.65,3.16-1.86,5.54-5.59,5.65a3.38,3.38,0,0,0-3.17,2.32c-.85,3.19-2.57,2.67-5.22,2.49-3.56-.23-7,1.08-4.25,6,1.35,2.41,1.75,4.88,0,7.2-2,2.64-.27,5.32-.33,8-.15,7.12-.79,14.27,4.14,20.43,2.33,2.92-2.65,5.21-1.17,8.24l.09,0c3.37,2.06,7.71,2.29,10.39,5.61l.09-.05-.08.05.54,1.07c.69-.31,1.45-.5,1.93.23s0,1.35-.58,1.87c0,.34,0,.68,0,1,.91,1,2.53,1.92,2.62,3,.74,8.93,7,5.7,11.88,5.6.44-6.88,7.35-9.17,10.18-14.36,1-1.88,1.88-4.14,4.77-2.18,2.28,1.55,6.67,1.61,4.16,6.3,1.9-.49,3.85-1,5.78-.4,6.23,2.11,6.07,2,6.6,1.42,2.13-2.45,5.65-3.75,5.59-8,0-2.83,3.76-2.88,4.73-5.6,2.15-6,1.92-6.68-4.39-6.3,1.24-7.44,5.84-11.66,12-11l2-1,1.13-.72,0-.08c-.16-.42-.31-.84-.46-1.27-.23-.26-.48-.52-.73-.77l-1.5-.72,1.5.72-1.5-.72v0q-.93-.12-.51-1c-.68-2.25-2.74-3.06-4.36-4.4s-4.37-2.42-3.85-5.29c.83-4.61-.59-9.15-.15-13.72-1.85-3.48-3.4-6.37-7.49-1.59-2,2.35-7.21.24-8.72,4.78-.21.62-2,0-2.41-.94a45.11,45.11,0,0,0-5.48-9.38c-1.1-1.49-.45-4-3.61-3.86a1.29,1.29,0,0,1-.89-2.19c5.55-4.95,1.44-11.64,3.15-17.34.83-2.77-.77-6.17,3-8.08,1.3-.67,1.29-2.56.41-3.74-2.51-3.31-2.4-7.45-3.83-11.1l-1.25-2.14C1927.8,189.11,1927.25,186.8,1926.85,184.47Zm-32.19,35.74c-1.41-4.58-.63-7.13,2-9,.21-.15,1.23.28,1.31.6C1898.84,215,1896,216.51,1894.66,220.21Zm5.15-12.09-.38.25h0a6.66,6.66,0,0,1-.45-.83s.15-.12.29-.22l.13-.08a6.73,6.73,0,0,1,.46.83S1899.84,208.09,1899.81,208.12ZM1912,244.39c-1.78.84-2.92-.2-3.55-1.79a1.64,1.64,0,0,1,.92-2.36,3.33,3.33,0,0,1,4,1.27A2.27,2.27,0,0,1,1912,244.39Z"/><path class="cls-6" d="M1972.35,296.88c-3.13,3.14-8,5-7.9,10.58-2.84-.63-1.36-3.45-3.3-4.37-2.21,2-4.9,3.7-7.05,5.61-3.53,3.14-8.56,6.9-6,12.75,3,6.83-1.15,14.67,3.7,21.3.81,1.1-.53,4.17,2.65,4.26,2.56.08,3.55,3.3,6.2,2.94,1.58-.22,1.6-1.48,1.51-2.71l-.41-.17.43.11h0a50.73,50.73,0,0,1,5.37-5.79c3.15-3.06,6.3-6.17,8.08-10.69,1.56-4,3.75-9.19,9.18-10.79,1.2-.35,4.35-11.32,3.72-12.28a2.24,2.24,0,0,0-1.43-.89,5.13,5.13,0,0,1-2.31-1c-1.81-1.37-2.33-3.83-3.43-5.8h0l-.84-2.27C1978.23,293.37,1975,294.29,1972.35,296.88Z"/><path class="cls-6" d="M2005.09,263.33c6-3.75,4.06-9.5,4.09-14.76-1.94-2-2.21-4.94-3.59-7.26a6.52,6.52,0,0,0-1.81-2c-4.88,3.74-8,9.09-11.9,13.38-4.47,5-5.34,9.08-5.18,14.63.27,1.35.6,2.69.81,4,.46,3,.79,6.63,4.09,7.13a9.85,9.85,0,0,0,9.7-4.19,18.83,18.83,0,0,0,2.78-7.07C2004.37,265.88,2004.26,263.85,2005.09,263.33Z"/><path class="cls-6" d="M1664.55,349.55a5,5,0,0,1-3-2.69c-.39-1,1.33-3.4-1.17-2.71-1.65.46-3.8,3.71-2.81,4.46,4.33,3.29,4.53,10.78,11.64,11.45C1670.27,355,1669.07,351.48,1664.55,349.55Z"/><path class="cls-6" d="M1817.93,266.43c-2.85-1.43-1.84-3.83-3.36-5.77-3.36,3.89-6.45,7.5-8,12.21-.29.93-1,2-.26,2.71,1.87,1.64,3.8,3.35,6.67,2.92,2.2-.33,5-.72,4.79-3.26C1817.58,272.15,1821.74,268.33,1817.93,266.43Z"/></g></g></g></svg>