<svg width="56" height="48" viewBox="0 0 56 48" fill="none" xmlns="http://www.w3.org/2000/svg">
<g id="Vector">
<path d="M26.8944 14.7327C24.356 17.2711 21.93 19.7132 19.488 22.1391C18.6526 22.9746 18.026 23.9224 17.769 25.1113C17.2388 27.473 18.2991 29.899 20.4198 31.12C22.4923 32.3249 25.1593 32.084 26.8944 30.4292C28.9348 28.4852 30.9109 26.4609 32.9031 24.4526C33.5296 23.8261 33.4975 22.9264 32.9031 22.364C32.3086 21.8017 31.4571 21.8178 30.8145 22.4765C28.9027 24.3723 27.0229 26.2841 25.1111 28.1639C23.633 29.6259 21.2553 29.0154 20.6769 27.0714C20.4038 26.1395 20.5644 25.2559 21.2553 24.5651C24.1632 21.625 27.0872 18.7171 30.0273 15.8091C30.7663 15.0862 31.7142 14.7488 32.7585 14.7327C33.7546 14.7167 34.7667 14.7327 35.7628 14.7167C36.7589 14.7167 37.6586 15.0219 38.4458 15.6163C39.3134 16.259 40.1809 16.9177 41.0485 17.5603C42.3659 18.5564 43.8601 19.0705 45.5149 19.0705C47.6838 19.0705 49.8527 19.0705 52.0055 19.0705C53.9334 19.0705 55.1384 20.2433 55.1384 22.1713C55.1544 26.8786 55.1544 31.5859 55.1384 36.3093C55.1384 38.2372 53.9495 39.394 52.0216 39.41C49.194 39.41 46.3663 39.41 43.5387 39.41C43.3459 39.41 43.1532 39.41 43.0086 39.41C43.2174 38.5264 43.4745 37.707 43.5869 36.8555C43.8279 34.8955 43.2817 33.1122 42.0446 31.5859C41.4823 30.8951 40.8236 30.2685 40.1649 29.6419C39.5704 29.0796 38.7029 29.1278 38.1566 29.6901C37.6265 30.2203 37.5943 31.0557 38.1084 31.6502C38.5262 32.1322 39.0081 32.5659 39.458 33.0318C41.2895 34.9437 41.177 37.7713 39.1527 39.4743C36.1966 41.9645 33.2244 44.4387 30.2361 46.9128C28.5171 48.3266 26.4285 48.3588 24.6452 47.0253C22.653 45.5472 20.6608 44.0692 18.6847 42.5429C17.1745 41.3861 15.5036 40.8399 13.6079 40.856C10.1216 40.872 6.63524 40.856 3.14892 40.856C1.17281 40.856 0 39.6992 0 37.7231C0 33.0318 0 28.3406 0 23.6493C0 21.7214 1.18887 20.5325 3.11679 20.5325C4.67519 20.5325 6.24965 20.5325 7.80805 20.5165C9.81629 20.5004 11.5032 19.7453 12.9331 18.3476C13.7364 17.5603 14.5236 16.757 15.3269 15.9698C16.1623 15.1504 17.1906 14.7167 18.3634 14.7167C21.0946 14.7006 23.8097 14.7167 26.541 14.7167C26.5892 14.7006 26.6695 14.7006 26.8944 14.7327Z" fill="url(#paint0_linear_114_12)"/>
<path d="M18.2027 10.1539C17.9778 10.0415 17.4958 9.89687 17.1263 9.59161C16.4676 9.04537 15.8892 8.40273 15.2948 7.77616C14.5397 6.98893 14.5397 5.81611 15.2627 5.07708C16.0178 4.30591 17.1745 4.27378 17.9939 5.06101C18.6526 5.67152 19.2952 6.31416 19.8897 6.97286C20.4359 7.58337 20.5002 8.30634 20.1789 9.04537C19.8736 9.76834 19.2631 10.1057 18.2027 10.1539Z" fill="url(#paint1_linear_114_12)"/>
<path d="M36.791 10.1539C35.8431 10.1218 35.2326 9.7844 34.8953 9.09357C34.5579 8.38667 34.5579 7.6637 35.088 7.06926C35.7628 6.29809 36.4858 5.57512 37.257 4.90035C37.9639 4.27378 39.0403 4.37018 39.7311 5.01282C40.4059 5.63939 40.5826 6.764 39.9882 7.47091C39.2813 8.30634 38.478 9.06144 37.6586 9.80047C37.4176 10.0254 36.9838 10.0736 36.791 10.1539Z" fill="url(#paint2_linear_114_12)"/>
<path d="M25.6091 3.16523C25.6091 2.73145 25.5931 2.2816 25.6091 1.84782C25.6573 0.787469 26.4606 0.000236781 27.5049 0.000236781C28.5653 -0.0158292 29.4168 0.787468 29.4489 1.86389C29.481 2.74751 29.465 3.61508 29.4489 4.4987C29.4168 5.57512 28.5653 6.39449 27.521 6.39449C26.4767 6.39449 25.6413 5.55906 25.6091 4.48264C25.6091 4.04886 25.6091 3.59901 25.6091 3.16523Z" fill="url(#paint3_linear_114_12)"/>
</g>
<defs>
<linearGradient id="paint0_linear_114_12" x1="10.4997" y1="14.5003" x2="50.4997" y2="48.0003" gradientUnits="userSpaceOnUse">
<stop stop-color="#32669B"/>
<stop offset="1" stop-color="#85FFBD"/>
</linearGradient>
<linearGradient id="paint1_linear_114_12" x1="10.4997" y1="14.5003" x2="50.4997" y2="48.0003" gradientUnits="userSpaceOnUse">
<stop stop-color="#32669B"/>
<stop offset="1" stop-color="#85FFBD"/>
</linearGradient>
<linearGradient id="paint2_linear_114_12" x1="10.4997" y1="14.5003" x2="50.4997" y2="48.0003" gradientUnits="userSpaceOnUse">
<stop stop-color="#32669B"/>
<stop offset="1" stop-color="#85FFBD"/>
</linearGradient>
<linearGradient id="paint3_linear_114_12" x1="10.4997" y1="14.5003" x2="50.4997" y2="48.0003" gradientUnits="userSpaceOnUse">
<stop stop-color="#32669B"/>
<stop offset="1" stop-color="#85FFBD"/>
</linearGradient>
</defs>
</svg>
