<svg width="50" height="48" viewBox="0 0 50 48" fill="none" xmlns="http://www.w3.org/2000/svg">
<g id="Vector">
<path d="M49.1929 23.7393C48.8628 24.4104 48.3018 24.6084 47.5868 24.5974C46.2227 24.5644 44.8696 24.5974 43.5056 24.5864C42.8565 24.5864 42.4385 24.3113 42.2515 23.8053C41.9655 23.0463 42.4935 22.2872 43.3625 22.2322C43.9016 22.1992 44.4516 22.2212 44.9906 22.2212C45.8597 22.2212 46.7177 22.2432 47.5868 22.2102C48.3128 22.1772 48.8628 22.3862 49.2039 23.0573C49.1929 23.2883 49.1929 23.5193 49.1929 23.7393Z" fill="url(#paint0_linear_114_56)"/>
<path d="M24.6175 43.3204C22.7584 43.3204 20.8993 43.3204 19.0512 43.3204C17.9951 43.3204 17.5771 42.9024 17.5771 41.8353C17.5771 40.2842 17.5661 38.7332 17.5881 37.1821C17.5881 36.8851 17.5111 36.698 17.2471 36.533C12.5278 33.4529 10.2727 29.0636 10.6137 23.4533C11.0097 16.9739 16.246 11.5066 22.6704 10.6816C30.1948 9.72454 36.9052 14.5208 38.4013 21.9352C39.5343 27.5125 36.9712 33.4089 32.0759 36.467C31.7349 36.676 31.6029 36.885 31.6139 37.2921C31.6469 38.8432 31.6249 40.3942 31.6249 41.9453C31.6249 42.8804 31.1849 43.3204 30.2388 43.3314C28.3687 43.3204 26.4986 43.3204 24.6175 43.3204Z" fill="url(#paint1_linear_114_56)"/>
<path d="M24.5955 45.6525C25.7506 45.6525 26.8946 45.6525 28.0497 45.6525C28.5557 45.6525 28.9517 45.8726 29.1717 46.3346C29.3698 46.7636 29.3588 47.2256 29.0067 47.5336C28.7537 47.7647 28.3797 47.9737 28.0497 47.9737C25.7506 48.0067 23.4514 48.0067 21.1413 47.9847C20.3933 47.9737 19.8872 47.4566 19.9092 46.7966C19.9202 46.1366 20.4483 45.6525 21.1853 45.6415C22.3294 45.6415 23.4624 45.6525 24.5955 45.6525Z" fill="url(#paint2_linear_114_56)"/>
<path d="M3.51833 22.2322C4.23337 22.2322 4.95941 22.2212 5.67445 22.2322C6.49949 22.2432 7.02752 22.6943 7.02752 23.3983C7.02752 24.1023 6.51049 24.5754 5.68545 24.5864C4.23337 24.5974 2.77029 24.5864 1.31821 24.5864C0.823182 24.5864 0.405154 24.4214 0.15214 23.9593C-0.067872 23.5633 -0.0458681 23.1563 0.196145 22.7713C0.449159 22.3642 0.845179 22.2212 1.3072 22.2212C2.04425 22.2212 2.78129 22.2322 3.51833 22.2322Z" fill="url(#paint3_linear_114_56)"/>
<path d="M36.6082 10.1316C36.7512 9.85654 36.8502 9.53753 37.0592 9.32852C38.1262 8.22845 39.2153 7.13939 40.3044 6.06133C40.8104 5.5553 41.5144 5.55531 41.9765 6.01733C42.4385 6.47936 42.4605 7.19439 41.9655 7.68942C40.8764 8.80048 39.7763 9.88955 38.6763 10.9786C38.3133 11.3306 37.8732 11.4406 37.4002 11.2316C36.9492 11.0336 36.7072 10.6706 36.6082 10.1316Z" fill="url(#paint4_linear_114_56)"/>
<path d="M25.7616 3.5532C25.7616 4.29024 25.7726 5.02728 25.7616 5.76432C25.7506 6.50136 25.2555 7.01839 24.5955 7.01839C23.9355 7.01839 23.4404 6.49036 23.4404 5.75332C23.4294 4.24623 23.4294 2.75015 23.4404 1.24307C23.4404 0.495026 23.9135 0 24.6065 0C25.2995 0 25.7506 0.484026 25.7616 1.24307C25.7726 2.01311 25.7616 2.78315 25.7616 3.5532Z" fill="url(#paint5_linear_114_56)"/>
<path d="M8.19359 5.66532C8.3476 5.75332 8.66661 5.85232 8.88663 6.06133C9.97569 7.11739 11.0537 8.19545 12.1098 9.27351C12.6158 9.77954 12.6158 10.4836 12.1648 10.9456C11.7028 11.4296 10.9767 11.4296 10.4597 10.9126C9.38165 9.84555 8.30359 8.76748 7.23653 7.68942C6.86251 7.3154 6.76351 6.85338 6.97252 6.36935C7.18153 5.91832 7.55555 5.70932 8.19359 5.66532Z" fill="url(#paint6_linear_114_56)"/>
</g>
<defs>
<linearGradient id="paint0_linear_114_56" x1="0" y1="0" x2="31" y2="48" gradientUnits="userSpaceOnUse">
<stop offset="0.391372" stop-color="#32669B"/>
<stop offset="1" stop-color="#85FFBD"/>
</linearGradient>
<linearGradient id="paint1_linear_114_56" x1="0" y1="0" x2="31" y2="48" gradientUnits="userSpaceOnUse">
<stop offset="0.391372" stop-color="#32669B"/>
<stop offset="1" stop-color="#85FFBD"/>
</linearGradient>
<linearGradient id="paint2_linear_114_56" x1="0" y1="0" x2="31" y2="48" gradientUnits="userSpaceOnUse">
<stop offset="0.391372" stop-color="#32669B"/>
<stop offset="1" stop-color="#85FFBD"/>
</linearGradient>
<linearGradient id="paint3_linear_114_56" x1="0" y1="0" x2="31" y2="48" gradientUnits="userSpaceOnUse">
<stop offset="0.391372" stop-color="#32669B"/>
<stop offset="1" stop-color="#85FFBD"/>
</linearGradient>
<linearGradient id="paint4_linear_114_56" x1="0" y1="0" x2="31" y2="48" gradientUnits="userSpaceOnUse">
<stop offset="0.391372" stop-color="#32669B"/>
<stop offset="1" stop-color="#85FFBD"/>
</linearGradient>
<linearGradient id="paint5_linear_114_56" x1="0" y1="0" x2="31" y2="48" gradientUnits="userSpaceOnUse">
<stop offset="0.391372" stop-color="#32669B"/>
<stop offset="1" stop-color="#85FFBD"/>
</linearGradient>
<linearGradient id="paint6_linear_114_56" x1="0" y1="0" x2="31" y2="48" gradientUnits="userSpaceOnUse">
<stop offset="0.391372" stop-color="#32669B"/>
<stop offset="1" stop-color="#85FFBD"/>
</linearGradient>
</defs>
</svg>
