<svg width="44" height="48" viewBox="0 0 44 48" fill="none" xmlns="http://www.w3.org/2000/svg">
<g id="Vector">
<path d="M21.5657 2.59352C22.3928 2.05212 23.1448 1.48064 23.9719 1.05955C29.2054 -1.66248 34.7397 1.10467 35.8225 6.96982C36.5294 10.8348 35.4766 14.2937 33.311 17.4519C30.5289 21.5124 26.709 24.3246 22.2274 26.2346C21.9116 26.3699 21.4604 26.4 21.1446 26.2647C15.9261 24.0239 11.5799 20.7153 8.87291 15.6021C7.12841 12.3236 6.63214 8.84967 7.92548 5.28546C9.20378 1.76637 12.2567 -0.233793 15.8961 0.0218671C17.8662 0.157217 19.5655 1.01444 21.0995 2.21754C21.2499 2.33785 21.4153 2.4732 21.5657 2.59352Z" fill="url(#paint0_linear_114_70)"/>
<path d="M28.4685 33.9044C29.7619 33.5735 31.0101 33.2577 32.2583 32.9569C34.5442 32.3855 36.8301 31.7538 39.1461 31.2876C41.417 30.8365 43.3119 32.4306 43.2517 34.5962C43.2367 35.3632 42.9359 36.0399 42.4246 36.5813C41.9885 37.0325 41.5072 37.4686 40.9809 37.8295C36.7549 40.6869 32.499 43.4992 28.3031 46.3866C25.7014 48.1763 23.0546 48.477 20.1069 47.289C16.6931 45.9054 13.2041 44.6722 9.74518 43.3789C9.5196 43.3037 9.27896 43.2736 9.03834 43.2585C8.46687 43.2435 7.88036 43.2585 7.26377 43.2585C7.26377 39.2582 7.26377 35.288 7.26377 31.2275C7.44424 31.2275 7.63974 31.2275 7.85029 31.2275C10.1512 31.2275 12.4672 31.1824 14.7682 31.2575C15.6855 31.2876 16.6029 31.5583 17.5052 31.799C19.9114 32.4155 22.3176 33.0622 24.7239 33.7239C25.8668 34.0397 26.5737 34.9571 26.5737 36.0549C26.5737 37.1377 25.8518 38.1303 24.784 38.3559C24.3629 38.4461 23.8817 38.4311 23.4606 38.3258C21.671 37.8897 19.9114 37.3934 18.1368 36.9272C17.3097 36.7016 16.648 37.0174 16.4675 37.7092C16.2871 38.416 16.6781 39.0026 17.5052 39.2281C19.2798 39.7094 21.0394 40.2057 22.829 40.6568C24.7539 41.1531 26.4533 40.717 27.7768 39.1981C29.0701 37.7092 29.2957 35.9948 28.5738 34.145C28.5437 34.0999 28.5287 34.0397 28.4685 33.9044Z" fill="url(#paint1_linear_114_70)"/>
<path d="M0 37.1678C0 34.8819 0 32.596 0 30.2951C0 29.2123 0.406049 28.8062 1.50388 28.8062C2.16559 28.8062 2.81226 28.8062 3.47397 28.8062C4.33118 28.8213 4.78235 29.2574 4.81243 30.1296C4.82747 30.656 4.81243 31.1824 4.81243 31.7087C4.81243 35.7993 4.81243 39.8899 4.81243 43.9804C4.81243 45.2286 4.42142 45.6196 3.15816 45.6196C2.57164 45.6196 2.00017 45.6196 1.41366 45.6196C0.43613 45.6046 0 45.1685 0 44.206C0 41.8599 0 39.5139 0 37.1678Z" fill="url(#paint2_linear_114_70)"/>
</g>
<defs>
<linearGradient id="paint0_linear_114_70" x1="9.50182" y1="10.4985" x2="37.5018" y2="44.4985" gradientUnits="userSpaceOnUse">
<stop stop-color="#32669B"/>
<stop offset="1" stop-color="#85FFBD"/>
</linearGradient>
<linearGradient id="paint1_linear_114_70" x1="9.50182" y1="10.4985" x2="37.5018" y2="44.4985" gradientUnits="userSpaceOnUse">
<stop stop-color="#32669B"/>
<stop offset="1" stop-color="#85FFBD"/>
</linearGradient>
<linearGradient id="paint2_linear_114_70" x1="9.50182" y1="10.4985" x2="37.5018" y2="44.4985" gradientUnits="userSpaceOnUse">
<stop stop-color="#32669B"/>
<stop offset="1" stop-color="#85FFBD"/>
</linearGradient>
</defs>
</svg>
