<svg width="32" height="32" viewBox="0 0 32 32" fill="none" xmlns="http://www.w3.org/2000/svg">
<path d="M0 23.8729C0 18.6209 0 13.3767 0 8.12463C0.0547904 7.79589 0.0860992 7.46715 0.156544 7.14623C0.970572 3.55355 3.14653 1.25235 6.69225 0.266125C7.16188 0.133062 7.64717 0.0860992 8.12463 0C13.3767 0 18.6209 0 23.8729 0C24.5461 0.14089 25.2349 0.211334 25.8767 0.422669C29.5946 1.65154 31.9741 4.90765 31.9898 8.8056C32.0054 13.5958 31.9976 18.3861 31.9898 23.1763C31.9898 24.6948 31.6532 26.1428 30.8939 27.45C29.1563 30.4243 26.5342 31.9663 23.0824 31.9819C18.3548 32.0132 13.6271 31.9976 8.89952 31.9819C8.31248 31.9819 7.70196 31.9506 7.13058 31.8176C3.55355 31.027 1.25235 28.851 0.266125 25.3132C0.133062 24.8435 0.0860992 24.3504 0 23.8729ZM16.0066 7.23233C11.1929 7.20885 7.27929 11.1146 7.23233 15.9753C7.18537 20.7812 11.1381 24.7496 15.991 24.7731C20.8047 24.7887 24.7183 20.8908 24.7731 16.0301C24.8122 11.2164 20.8595 7.24798 16.0066 7.23233ZM27.9587 6.69225C27.9509 5.22857 26.7455 4.03101 25.2897 4.03883C23.826 4.05449 22.6206 5.2677 22.6363 6.70791C22.6519 8.16376 23.8729 9.37698 25.3132 9.36133C26.769 9.3535 27.9666 8.14028 27.9587 6.69225Z" fill="white"/>
<path d="M22.8789 16.0066C22.8711 19.8106 19.7715 22.8945 15.9753 22.8789C12.1791 22.8554 9.11086 19.7793 9.11868 15.991C9.12651 12.1869 12.2339 9.10303 16.0223 9.11868C19.8185 9.14217 22.8867 12.2183 22.8789 16.0066Z" fill="white"/>
<path d="M25.2897 5.93302C25.7123 5.92519 26.0646 6.26958 26.0724 6.70008C26.0724 7.12275 25.7202 7.4828 25.2975 7.47497C24.8983 7.47497 24.5383 7.12275 24.5304 6.72356C24.5148 6.30089 24.867 5.93302 25.2897 5.93302Z" fill="white"/>
</svg>
