<svg width="48" height="48" viewBox="0 0 48 48" fill="none" xmlns="http://www.w3.org/2000/svg">
<path id="Path_2520" d="M40.9036 40.6129H33.8409V29.5526C33.8409 26.9149 33.7939 23.5209 30.1674 23.5209C26.4892 23.5209 25.9255 26.3935 25.9255 29.3623V40.6129H18.8651V17.8674H25.646V20.9748H25.74C27.1234 18.612 29.6929 17.2004 32.4293 17.3014C39.5883 17.3014 40.906 22.0107 40.906 28.1339L40.9036 40.6129ZM10.8957 14.7577C8.6315 14.7577 6.79711 12.9233 6.79711 10.659C6.79711 8.39483 8.6315 6.56044 10.8957 6.56044C13.1599 6.56044 14.9943 8.39483 14.9943 10.659C14.9943 12.9233 13.1599 14.7577 10.8957 14.7577ZM14.4259 40.6129H7.35612V17.8674H14.4259V40.6129ZM44.4244 0.00266959H3.80713C1.88818 -0.0184693 0.314503 1.51998 0.291016 3.43892V44.223C0.314503 46.1443 1.88818 47.6827 3.80713 47.6616H44.4244C46.3481 47.6851 47.9288 46.1466 47.9546 44.223V3.43657C47.9264 1.51293 46.3457 -0.0255158 44.4244 0.000320714" fill="white"/>
</svg>
