<svg width="16" height="17" viewBox="0 0 16 17" fill="none" xmlns="http://www.w3.org/2000/svg">
<g id="Frame 9">
<path id="Vector" d="M8.45885 16.4998C8.16968 16.4998 7.87483 16.4998 7.58566 16.4998C7.35886 16.4771 7.13206 16.4544 6.90526 16.4204C5.75991 16.2618 4.69962 15.8766 3.72437 15.2534C3.63365 15.1968 3.55427 15.1855 3.45221 15.2194C2.91922 15.3951 2.38624 15.565 1.84759 15.735C1.41666 15.8709 0.980073 16.0126 0.52647 16.1542C0.54915 16.0862 0.56049 16.0465 0.57183 16.0012C0.861001 15.1345 1.15017 14.2677 1.45069 13.4009C1.50739 13.2423 1.48471 13.129 1.39398 12.9874C0.60585 11.8487 0.152247 10.5797 0.0331764 9.20312C-0.114244 7.49227 0.225959 5.88338 1.12749 4.42179C2.62438 1.99714 4.81302 0.677173 7.66504 0.512886C9.24131 0.422245 10.7269 0.801806 12.0763 1.62324C14.1516 2.88656 15.4273 4.72204 15.8753 7.11837C15.932 7.41862 15.9603 7.72454 16 8.02479C16 8.33637 16 8.64795 16 8.95953C15.9887 9.07283 15.9716 9.18613 15.9603 9.29377C15.7675 11.0103 15.1155 12.5229 13.9645 13.8088C12.7284 15.1798 11.2031 16.0409 9.37739 16.3581C9.06554 16.4318 8.75936 16.4601 8.45885 16.4998ZM10.5738 13.0101C10.8289 12.9591 11.0501 12.9421 11.2542 12.8741C12.3882 12.4889 12.7737 11.9394 12.8078 10.9026C12.8134 10.7384 12.7567 10.6251 12.6036 10.5514C12.0083 10.2682 11.4129 9.97358 10.8176 9.69599C10.5114 9.55436 10.33 9.61101 10.1315 9.88293C9.97842 10.0925 9.82533 10.3022 9.66656 10.5061C9.42275 10.8177 9.25265 10.8573 8.87843 10.7044C7.56298 10.1662 6.58207 9.24278 5.84496 8.04745C5.69754 7.80951 5.70321 7.70754 5.89032 7.48661C6.03774 7.31099 6.1965 7.1467 6.34392 6.97108C6.52536 6.75581 6.60475 6.52354 6.45166 6.25728C6.41197 6.18364 6.38928 6.10432 6.35526 6.02501C6.12846 5.49249 5.90733 4.95431 5.66919 4.42179C5.6295 4.33682 5.53878 4.23485 5.4594 4.21219C5.03415 4.11588 4.60322 4.10455 4.23467 4.3878C3.90014 4.6484 3.662 4.9883 3.51458 5.39052C3.21974 6.17797 3.31613 6.94275 3.63932 7.69621C3.87746 8.25139 4.22333 8.73859 4.58054 9.22012C5.18157 10.0302 5.86764 10.761 6.66712 11.3842C7.52329 12.0527 8.49854 12.4719 9.52481 12.7778C9.87636 12.8854 10.2449 12.9421 10.5738 13.0101Z" fill="white"/>
</g>
</svg>
